<svg width="24" height="24" viewBox="0 0 24 24" fill="none" xmlns="http://www.w3.org/2000/svg">
<path d="M20.25 16.6065V7.39349C20.7618 7.26234 21.2298 6.9981 21.6064 6.62759C21.9831 6.25708 22.2549 5.7935 22.3945 5.28392C22.534 4.77435 22.5362 4.23692 22.4009 3.72622C22.2655 3.21551 21.9974 2.74972 21.6239 2.37613C21.2503 2.00254 20.7845 1.73446 20.2738 1.59912C19.7631 1.46377 19.2256 1.46597 18.7161 1.60551C18.2065 1.74504 17.7429 2.01693 17.3724 2.39358C17.0019 2.77022 16.7376 3.2382 16.6065 3.74999H7.39349C7.26234 3.2382 6.9981 2.77022 6.62759 2.39358C6.25708 2.01693 5.7935 1.74504 5.28392 1.60551C4.77435 1.46597 4.23692 1.46377 3.72622 1.59912C3.21551 1.73446 2.74972 2.00254 2.37613 2.37613C2.00254 2.74972 1.73446 3.21551 1.59912 3.72622C1.46377 4.23692 1.46597 4.77435 1.60551 5.28392C1.74504 5.7935 2.01693 6.25708 2.39358 6.62759C2.77022 6.9981 3.2382 7.26234 3.74999 7.39349V16.6065C3.2382 16.7376 2.77022 17.0019 2.39358 17.3724C2.01693 17.7429 1.74504 18.2065 1.60551 18.7161C1.46597 19.2256 1.46377 19.7631 1.59912 20.2738C1.73446 20.7845 2.00254 21.2503 2.37613 21.6239C2.74972 21.9974 3.21551 22.2655 3.72622 22.4009C4.23692 22.5362 4.77435 22.534 5.28392 22.3945C5.7935 22.2549 6.25708 21.9831 6.62759 21.6064C6.9981 21.2298 7.26234 20.7618 7.39349 20.25H16.6065C16.7376 20.7618 17.0019 21.2298 17.3724 21.6064C17.7429 21.9831 18.2065 22.2549 18.7161 22.3945C19.2256 22.534 19.7631 22.5362 20.2738 22.4009C20.7845 22.2655 21.2503 21.9974 21.6239 21.6239C21.9974 21.2503 22.2655 20.7845 22.4009 20.2738C22.5362 19.7631 22.534 19.2256 22.3945 18.7161C22.2549 18.2065 21.9831 17.7429 21.6064 17.3724C21.2298 17.0019 20.7618 16.7376 20.25 16.6065ZM19.5 2.99999C19.7967 2.99999 20.0867 3.08797 20.3333 3.25279C20.58 3.41761 20.7723 3.65188 20.8858 3.92597C20.9993 4.20006 21.029 4.50166 20.9712 4.79263C20.9133 5.0836 20.7704 5.35088 20.5607 5.56065C20.3509 5.77043 20.0836 5.91329 19.7926 5.97117C19.5017 6.02905 19.2001 5.99935 18.926 5.88581C18.6519 5.77228 18.4176 5.58002 18.2528 5.33335C18.088 5.08668 18 4.79667 18 4.49999C18.0004 4.10229 18.1586 3.72099 18.4398 3.43977C18.721 3.15855 19.1023 3.00039 19.5 2.99999ZM2.99999 4.49999C2.99999 4.20332 3.08797 3.91331 3.25279 3.66664C3.41761 3.41997 3.65188 3.22771 3.92597 3.11418C4.20006 3.00064 4.50166 2.97094 4.79263 3.02882C5.0836 3.08669 5.35088 3.22956 5.56065 3.43933C5.77043 3.64911 5.91329 3.91639 5.97117 4.20736C6.02905 4.49833 5.99935 4.79993 5.88581 5.07402C5.77228 5.34811 5.58002 5.58238 5.33335 5.7472C5.08668 5.91202 4.79667 5.99999 4.49999 5.99999C4.10229 5.9996 3.72099 5.84143 3.43977 5.56022C3.15855 5.279 3.00039 4.8977 2.99999 4.49999ZM4.49999 21C4.20332 21 3.91331 20.912 3.66664 20.7472C3.41997 20.5824 3.22771 20.3481 3.11418 20.074C3.00064 19.7999 2.97094 19.4983 3.02882 19.2074C3.08669 18.9164 3.22956 18.6491 3.43933 18.4393C3.64911 18.2296 3.91639 18.0867 4.20736 18.0288C4.49833 17.9709 4.79993 18.0006 5.07402 18.1142C5.34811 18.2277 5.58238 18.42 5.7472 18.6666C5.91202 18.9133 5.99999 19.2033 5.99999 19.5C5.9996 19.8977 5.84143 20.279 5.56022 20.5602C5.279 20.8414 4.8977 20.9996 4.49999 21ZM16.6065 18.75H7.39349C7.25915 18.2343 6.98969 17.7639 6.6129 17.3871C6.23611 17.0103 5.76564 16.7408 5.24999 16.6065V7.39349C5.7656 7.25908 6.23604 6.98959 6.61282 6.61282C6.98959 6.23604 7.25908 5.7656 7.39349 5.24999H16.6065C16.7408 5.76564 17.0103 6.23611 17.3871 6.6129C17.7639 6.98969 18.2343 7.25915 18.75 7.39349V16.6065C18.2343 16.7408 17.7638 17.0102 17.387 17.387C17.0102 17.7638 16.7408 18.2343 16.6065 18.75ZM19.5 21C19.2033 21 18.9133 20.912 18.6666 20.7472C18.42 20.5824 18.2277 20.3481 18.1142 20.074C18.0006 19.7999 17.9709 19.4983 18.0288 19.2074C18.0867 18.9164 18.2296 18.6491 18.4393 18.4393C18.6491 18.2296 18.9164 18.0867 19.2074 18.0288C19.4983 17.9709 19.7999 18.0006 20.074 18.1142C20.3481 18.2277 20.5824 18.42 20.7472 18.6666C20.912 18.9133 21 19.2033 21 19.5C20.9994 19.8976 20.8412 20.2788 20.56 20.56C20.2788 20.8412 19.8976 20.9994 19.5 21Z" fill="#333333"/>
</svg>
