<svg width="24" height="24" viewBox="0 0 24 24" fill="none" xmlns="http://www.w3.org/2000/svg">
<path d="M16.0605 2.45401C16.3417 2.7353 16.4997 3.11676 16.4997 3.51451C16.4997 3.91226 16.3417 4.29372 16.0605 4.57501L8.63551 12L16.0605 19.425C16.3337 19.7079 16.4849 20.0868 16.4815 20.4801C16.4781 20.8734 16.3204 21.2496 16.0422 21.5277C15.7641 21.8059 15.3879 21.9636 14.9946 21.967C14.6013 21.9704 14.2224 21.8192 13.9395 21.546L5.45401 13.0605C5.1728 12.7792 5.01483 12.3978 5.01483 12C5.01483 11.6023 5.1728 11.2208 5.45401 10.9395L13.9395 2.45401C14.2208 2.1728 14.6023 2.01483 15 2.01483C15.3978 2.01483 15.7792 2.1728 16.0605 2.45401Z" fill="#333333"/>
</svg>
