<svg width="24" height="24" viewBox="0 0 24 24" fill="none" xmlns="http://www.w3.org/2000/svg">
<path d="M19.2572 14.1628C18.358 14.7094 17.3253 14.9968 16.2731 14.9934C15.3916 14.9864 14.52 14.8061 13.7081 14.4628C13.0823 15.3462 12.7474 16.4027 12.75 17.4853V20.25C12.7502 20.3528 12.7293 20.4546 12.6885 20.549C12.6478 20.6434 12.588 20.7284 12.513 20.7987C12.438 20.869 12.3494 20.9232 12.2526 20.9578C12.1558 20.9925 12.0529 21.0068 11.9503 21C11.7575 20.9832 11.5782 20.8942 11.4483 20.7507C11.3184 20.6073 11.2476 20.4201 11.25 20.2266V19.0603L7.62935 15.4397C7.09113 15.6405 6.52191 15.7455 5.94747 15.75C5.15666 15.752 4.38066 15.5356 3.70497 15.1247C1.66216 13.8834 0.562474 11.0269 0.775286 7.48031C0.786001 7.29683 0.863718 7.12367 0.993681 6.9937C1.12364 6.86374 1.2968 6.78602 1.48029 6.77531C5.02685 6.56625 7.88341 7.66218 9.12091 9.705C9.60711 10.5057 9.81937 11.4429 9.7256 12.375C9.71977 12.4472 9.69315 12.5162 9.64895 12.5736C9.60475 12.631 9.54487 12.6744 9.47654 12.6985C9.40822 12.7226 9.33438 12.7264 9.26394 12.7094C9.19351 12.6924 9.1295 12.6554 9.07966 12.6028L7.27966 10.7184C7.13787 10.5837 6.94905 10.5097 6.75348 10.5122C6.55791 10.5147 6.37105 10.5935 6.23275 10.7318C6.09445 10.8701 6.01565 11.057 6.01314 11.2526C6.01064 11.4481 6.08463 11.637 6.21935 11.7787L11.2706 16.9584C11.2762 16.8853 11.2828 16.8122 11.2903 16.74C11.4543 15.3494 12.0679 14.0505 13.0378 13.0406L17.7806 8.02875C17.9213 7.88814 18.0004 7.69739 18.0005 7.49845C18.0006 7.29952 17.9217 7.1087 17.7811 6.96797C17.6405 6.82723 17.4497 6.74812 17.2508 6.74804C17.0518 6.74795 16.861 6.82689 16.7203 6.9675L12.1265 11.8256C12.0806 11.8743 12.0224 11.9098 11.958 11.9284C11.8937 11.947 11.8255 11.9481 11.7606 11.9314C11.6958 11.9148 11.6365 11.881 11.5891 11.8338C11.5417 11.7865 11.5078 11.7273 11.4909 11.6625C11.0465 10.0237 11.2425 8.3925 12.0909 6.99187C13.7653 4.22812 17.6615 2.74875 22.514 3.03375C22.6975 3.04446 22.8707 3.12218 23.0006 3.25214C23.1306 3.3821 23.2083 3.55526 23.219 3.73875C23.5003 8.59218 22.0209 12.4884 19.2572 14.1628Z" fill="#4ECB71"/>
</svg>
