<svg width="24" height="24" viewBox="0 0 24 24" fill="none" xmlns="http://www.w3.org/2000/svg">
<path fill-rule="evenodd" clip-rule="evenodd" d="M12 2C7.582 2 4 6.003 4 10.5C4 14.962 6.553 19.812 10.537 21.674C10.9949 21.8884 11.4944 21.9996 12 21.9996C12.5056 21.9996 13.0051 21.8884 13.463 21.674C17.447 19.812 20 14.962 20 10.5C20 6.003 16.418 2 12 2ZM12 12C12.5304 12 13.0391 11.7893 13.4142 11.4142C13.7893 11.0391 14 10.5304 14 10C14 9.46957 13.7893 8.96086 13.4142 8.58579C13.0391 8.21071 12.5304 8 12 8C11.4696 8 10.9609 8.21071 10.5858 8.58579C10.2107 8.96086 10 9.46957 10 10C10 10.5304 10.2107 11.0391 10.5858 11.4142C10.9609 11.7893 11.4696 12 12 12Z" fill="#333333"/>
</svg>
