<?xml version="1.0" encoding="UTF-8" standalone="no"?>
<svg
   width="24"
   height="24"
   viewBox="0 0 24 24"
   fill="none"
   version="1.1"
   id="svg4"
   sodipodi:docname="apple.svg"
   inkscape:version="1.1.2 (0a00cf5339, 2022-02-04)"
   xmlns:inkscape="http://www.inkscape.org/namespaces/inkscape"
   xmlns:sodipodi="http://sodipodi.sourceforge.net/DTD/sodipodi-0.dtd"
   xmlns="http://www.w3.org/2000/svg"
   xmlns:svg="http://www.w3.org/2000/svg">
  <defs
     id="defs8" />
  <sodipodi:namedview
     id="namedview6"
     pagecolor="#ffffff"
     bordercolor="#666666"
     borderopacity="1.0"
     inkscape:pageshadow="2"
     inkscape:pageopacity="0.0"
     inkscape:pagecheckerboard="0"
     showgrid="false"
     inkscape:zoom="25.573695"
     inkscape:cx="7.7423305"
     inkscape:cy="11.984971"
     inkscape:window-width="1916"
     inkscape:window-height="1041"
     inkscape:window-x="0"
     inkscape:window-y="18"
     inkscape:window-maximized="1"
     inkscape:current-layer="svg4" />
  <g
     id="g3134">
    <path
       style="fill:#f24e1e;fill-opacity:1"
       d="M 2.38,13.375 C 2.38,10.0965 3.91365,6.5 7.19143,6.5 c 1.17279,0 2.56466,0.44258 3.55277,0.8293 0.8076,0.31367 1.714,0.31367 2.5217,0 C 14.2496,6.94688 15.6458,6.5 16.8186,6.5 c 3.2778,0 4.8114,3.5965 4.8114,6.875 0,5.5 -3.4367,9.625 -6.8735,9.625 -0.7088,0 -1.6367,-0.2836 -2.2124,-0.4855 -0.3479,-0.1204 -0.726,-0.1204 -1.0739,0 C 10.8945,22.7164 9.96659,23 9.25777,23 5.81674,23 2.38,18.875 2.38,13.375 Z"
       id="path1230" />
    <path
       style="fill:#10a41c;fill-opacity:1"
       d="m 12.0029,6.9237175 c -0.3781,0 -0.6874,-0.30937 -0.6874,-0.6875 v -0.6875 c 0,-1.89922 1.5379,-3.4375 3.4367,-3.4375 h 0.6874 c 0.378,0 0.6873,0.30937 0.6873,0.6875 v 0.6875 c 0,1.89922 -1.5379,3.4375 -3.4367,3.4375 z"
       id="path2" />
  </g>
</svg>
