<svg width="24" height="24" viewBox="0 0 24 24" fill="none" xmlns="http://www.w3.org/2000/svg">
<path d="M6.75 7.5H8.25V9H6.75V7.5ZM6.75 10.5H8.25V12H6.75V10.5ZM9.75 9H11.25V10.5H9.75V9Z" fill="#F24E1E"/>
<path d="M6.74999 21C6.56326 21 6.37677 20.9864 6.19199 20.9595C5.29285 20.8098 4.47691 20.3434 3.89153 19.6447C3.30615 18.946 2.98993 18.061 2.99999 17.1495V8.39925C2.99006 7.07835 3.4672 5.80011 4.34022 4.80879C5.21324 3.81747 6.42093 3.1826 7.73249 3.0255C8.90713 2.90669 10.0874 3.18958 11.0805 3.828L17.058 7.56375C17.8483 8.06224 18.4908 8.76319 18.9188 9.59382C19.3468 10.4245 19.5446 11.3545 19.4918 12.2874C19.439 13.2203 19.1375 14.1221 18.6185 14.8991C18.0995 15.6762 17.382 16.3001 16.5405 16.7062L8.38049 20.628C7.87213 20.8737 7.31463 21.0009 6.74999 21ZM8.25149 4.5C8.12749 4.5 8.00249 4.506 7.87649 4.518C6.93509 4.63666 6.07039 5.09795 5.44755 5.81376C4.82471 6.52957 4.48738 7.44973 4.49999 8.3985V17.1503C4.4886 17.7015 4.67451 18.2387 5.02421 18.665C5.37391 19.0913 5.86439 19.3786 6.40724 19.4752C6.85795 19.5432 7.31868 19.474 7.72949 19.2765L15.8917 15.354C16.4918 15.0639 17.0032 14.6185 17.373 14.064C17.7429 13.5095 17.9576 12.8662 17.9949 12.2008C18.0323 11.5353 17.8909 10.872 17.5854 10.2796C17.2799 9.68728 16.8215 9.18745 16.2577 8.832L10.2787 5.0955C9.67459 4.70559 8.97054 4.49877 8.25149 4.5ZM19.5 5.25H16.5C15.7046 5.24901 14.9422 4.93262 14.3798 4.37022C13.8174 3.80783 13.501 3.04534 13.5 2.25V1.5H15V2.25C15.0004 2.6477 15.1585 3.029 15.4398 3.31022C15.721 3.59144 16.1023 3.7496 16.5 3.75H19.5V5.25Z" fill="#F24E1E"/>
</svg>
