<svg width="24" height="24" viewBox="0 0 24 24" fill="none" xmlns="http://www.w3.org/2000/svg">
<path d="M7.81201 10.341C7.14501 7.624 9.20201 5 12 5C14.798 5 16.855 7.624 16.188 10.341L13.6395 20.715C13.5494 21.0817 13.3389 21.4076 13.0418 21.6406C12.7446 21.8736 12.3779 22.0003 12.0003 22.0003C11.6226 22.0003 11.2559 21.8736 10.9587 21.6406C10.6616 21.4076 10.4511 21.0817 10.361 20.715L7.81201 10.3415V10.341Z" stroke="#FD8E29" stroke-width="1.5"/>
<path d="M12 2V4.75M15.051 2.796L13.687 4.421M9 2.796L10.3635 4.421M8 9.5H11M12.5 13H15.5M9.5 17H11.5" stroke="#FD8E29" stroke-width="1.5" stroke-linecap="round"/>
</svg>
