<?xml version="1.0" encoding="UTF-8" standalone="no"?>
<svg
   width="24"
   height="24"
   viewBox="0 0 24 24"
   fill="none"
   version="1.1"
   id="svg2742"
   sodipodi:docname="corn.svg"
   inkscape:version="1.1.2 (0a00cf5339, 2022-02-04)"
   xmlns:inkscape="http://www.inkscape.org/namespaces/inkscape"
   xmlns:sodipodi="http://sodipodi.sourceforge.net/DTD/sodipodi-0.dtd"
   xmlns="http://www.w3.org/2000/svg"
   xmlns:svg="http://www.w3.org/2000/svg">
  <defs
     id="defs2746" />
  <sodipodi:namedview
     id="namedview2744"
     pagecolor="#ffffff"
     bordercolor="#666666"
     borderopacity="1.0"
     inkscape:pageshadow="2"
     inkscape:pageopacity="0.0"
     inkscape:pagecheckerboard="0"
     showgrid="false"
     inkscape:zoom="32"
     inkscape:cx="11.15625"
     inkscape:cy="12.515625"
     inkscape:window-width="1916"
     inkscape:window-height="1041"
     inkscape:window-x="0"
     inkscape:window-y="18"
     inkscape:window-maximized="1"
     inkscape:current-layer="svg2742" />
  <path
     id="path2740"
     d="M 8.25,15.479204 5,14.5 c 0,0 -0.38954,0.8925 -0.5,1.5 -0.13971,0.7685 -0.14999,2 -0.14999,2 0,1 0.62594,2.3368 1.46955,3.1804 C 6.66317,22.0241 7.80696,22.4986 9,22.5 h 2.25 c 2.1873,-0.0024 4.2843,-0.8723 5.831,-2.419 1.5467,-1.5467 2.4166,-3.6437 2.419,-5.831 V 12 h -2.25 c -0.2527,0 -0.5025,0.015 -0.75,0.0375 V 12 C 16.5,6.08625 14.283,1.5 12.375,1.5 10.467,1.5 8.25,6.08625 8.25,12 v 3.388444 m 1.5,0.297316 V 12 l 2.7292,0.0375 V 10.5 H 9.80475 C 9.86766,9.49049 10.0093,8.48744 10.2285,7.5 h 2.2507 L 12.375,6 H 10.65 c 0.6075,-1.8045 1.3613,-2.829 1.725,-2.9895 0.495,0.219 1.713,2.02725 2.2988,5.2395 h -2.1946 v 1.5 H 14.883 C 14.9606,10.4975 14.9997,11.2485 15,12 v 0.3195 c -1.914,0.5473 -3.5672,1.765 -4.6575,3.4305 H 9.75 M 9,21 C 8.20466,20.999 7.44217,20.6826 6.87978,20.1202 6.31739,19.5578 5.89285,18.9245 5.8,18 5.74095,17.412 6,16.5 6,16.5 l 3.573,0.75 C 9.19529,18.2051 9.0009,19.2229 9,20.25 Z m 9,-6.75 c -0.002,1.7896 -0.7138,3.5053 -1.9792,4.7708 C 14.7553,20.2862 13.0396,20.998 11.25,21 H 10.5 v -0.75 c 0.002,-1.7896 0.7138,-3.5053 1.9792,-4.7708 C 13.7447,14.2138 15.4604,13.502 17.25,13.5 H 18 Z"
     style="fill:#ffe600;fill-opacity:1" />
  <path
     id="path5154"
     d="M 12.330078 1.5 C 10.432347 1.570903 8.25 6.1324512 8.25 12 L 8.2460938 15.294922 L 8.2480469 15.431641 L 8.25 15.478516 L 5 14.5 C 5 14.5 4.61046 15.3925 4.5 16 C 4.36029 16.7685 4.3496094 18 4.3496094 18 C 4.3496094 19 4.9767025 20.336087 5.8203125 21.179688 C 6.6639225 22.023388 7.80696 22.4986 9 22.5 L 11.25 22.5 C 13.4373 22.4976 15.533378 21.626778 17.080078 20.080078 C 18.626778 18.533378 19.4976 16.4373 19.5 14.25 L 19.5 12 L 17.25 12 C 16.9973 12 16.7475 12.014609 16.5 12.037109 L 16.5 12 C 16.5 6.08625 14.283 1.5 12.375 1.5 C 12.360094 1.5 12.345021 1.4994417 12.330078 1.5 z M 12.375 3.0097656 C 12.87 3.2287656 14.088028 5.03775 14.673828 8.25 L 12.478516 8.25 L 12.478516 9.75 L 14.882812 9.75 C 14.960413 10.4975 14.9997 11.2485 15 12 L 15 12.320312 C 13.086 12.867612 11.432097 14.0845 10.341797 15.75 L 9.75 15.75 L 9.75 15.695312 L 9.75 15.533203 L 9.75 12 L 12.478516 12.037109 L 12.478516 10.5 L 9.8046875 10.5 C 9.8675975 9.49049 10.009316 8.48744 10.228516 7.5 L 12.478516 7.5 L 12.375 6 L 10.650391 6 C 11.257891 4.1955 12.0113 3.1702656 12.375 3.0097656 z M 17.166016 13.5 C 17.193941 13.499623 17.222037 13.500031 17.25 13.5 L 18 13.5 L 18 14.25 C 17.998 16.0396 17.286884 17.755984 16.021484 19.021484 C 14.755984 20.286884 13.0396 20.998 11.25 21 L 10.5 21 L 10.5 20.25 C 10.502 18.4604 11.213116 16.744016 12.478516 15.478516 C 13.724242 14.232888 15.406742 13.523766 17.166016 13.5 z M 6 16.5 L 9.5722656 17.25 C 9.1945556 18.2051 9.0009 19.2229 9 20.25 L 9 21 C 8.20466 20.999 7.4412962 20.683494 6.8789062 20.121094 C 6.3165162 19.558694 5.8936312 18.9245 5.8007812 18 C 5.7417312 17.412 6 16.5 6 16.5 z " />
</svg>
