<?xml version="1.0" encoding="UTF-8" standalone="no"?>
<svg
   width="24"
   height="24"
   viewBox="0 0 24 24"
   fill="none"
   version="1.1"
   id="svg19185"
   sodipodi:docname="cucumber.svg"
   inkscape:version="1.1.2 (0a00cf5339, 2022-02-04)"
   xmlns:inkscape="http://www.inkscape.org/namespaces/inkscape"
   xmlns:sodipodi="http://sodipodi.sourceforge.net/DTD/sodipodi-0.dtd"
   xmlns="http://www.w3.org/2000/svg"
   xmlns:svg="http://www.w3.org/2000/svg">
  <defs
     id="defs19189" />
  <sodipodi:namedview
     id="namedview19187"
     pagecolor="#ffffff"
     bordercolor="#666666"
     borderopacity="1.0"
     inkscape:pageshadow="2"
     inkscape:pageopacity="0.0"
     inkscape:pagecheckerboard="0"
     showgrid="false"
     inkscape:zoom="25.573695"
     inkscape:cx="11.574393"
     inkscape:cy="12.493306"
     inkscape:window-width="1916"
     inkscape:window-height="1041"
     inkscape:window-x="0"
     inkscape:window-y="18"
     inkscape:window-maximized="1"
     inkscape:current-layer="svg19185" />
  <path
     d="M19.0125 2.5125L18.975 2.55C18.4875 3.01875 17.8875 3.3375 17.6063 3.73125C17.325 4.125 16.875 4.8375 16.3312 5.45625C15.7875 6.075 14.9437 7.06875 14.9437 7.06875C14.9437 7.06875 14.475 7.18125 14.3063 7.55625C14.1375 7.93125 13.9688 8.325 13.5563 8.7C13.1438 9.075 11.6625 10.575 11.1375 10.9312C10.6125 11.2875 9.84375 11.4 9.6375 11.7C9.43125 12 9.09375 12.375 8.55 12.7312C8.00625 13.0875 6.65625 14.1187 6.0375 14.3812C5.41875 14.6437 5.11875 14.7187 4.8375 15.0375C4.55625 15.3562 3.375 16.2562 2.775 16.6875C2.175 17.1187 0.749999 18.45 0.581249 19.2C0.412499 19.95 0.356249 20.9625 1.33125 21.675C2.30625 22.3875 3.99375 22.6312 5.925 22.35C7.85625 22.0687 7.59375 22.0875 8.25 21.7687C8.90625 21.45 10.275 20.8312 11.175 20.3812C12.075 19.9312 12.675 19.275 13.1625 19.0875C13.65 18.9 14.1 18.75 14.3063 18.4125C14.5125 18.075 15.2062 17.5125 15.6562 17.0812C16.1063 16.65 17.0438 15.5625 17.5312 15.3187C18.0187 15.075 18.5437 14.7187 18.675 14.3437C18.8062 13.9687 19.2375 13.5 19.8937 12.825C20.55 12.15 21.9 10.125 22.3125 9.4875C22.725 8.85 22.6687 8.64375 22.8937 8.3625C23.1187 8.08125 23.3625 7.78125 23.3063 7.2375C23.25 6.69375 23.6438 4.9125 23.4188 4.03125C23.1938 3.15 22.575 1.59375 21.4688 1.575C20.3625 1.55625 19.4063 2.0625 19.0125 2.5125Z"
     fill="#757F3F"
     id="path19183"
     style="fill:none;stroke:#757f3f;stroke-opacity:1" />
  <circle
     style="fill:#757f3f;fill-opacity:1;stroke:#757f3f;stroke-width:0.05;stroke-opacity:1"
     id="path19348"
     cx="19.239353"
     cy="4.3727541"
     r="0.21813037" />
  <circle
     style="fill:#757f3f;fill-opacity:1;stroke:#757f3f;stroke-width:0.05;stroke-opacity:1"
     id="path19350"
     cx="15.531918"
     cy="15.070914"
     r="0.30674386" />
  <circle
     style="fill:#757f3f;fill-opacity:1;stroke:#757f3f;stroke-width:0.05;stroke-opacity:1"
     id="path19352"
     cx="8.3852921"
     cy="14.251756"
     r="0.31831428" />
  <circle
     style="fill:#757f3f;fill-opacity:1;stroke:#757f3f;stroke-width:0.05;stroke-opacity:1"
     id="path19354"
     cx="11.93515"
     cy="17.561575"
     r="0.32117707" />
  <circle
     style="fill:#757f3f;fill-opacity:1;stroke:#757f3f;stroke-width:0.05;stroke-opacity:1"
     id="path19354-8"
     cx="6.4910445"
     cy="16.970562"
     r="0.32117707" />
  <circle
     style="fill:#757f3f;fill-opacity:1;stroke:#757f3f;stroke-width:0.05;stroke-opacity:1"
     id="path19356"
     cx="13.231768"
     cy="10.555634"
     r="0.27592638" />
  <circle
     style="fill:#757f3f;fill-opacity:1;stroke:#757f3f;stroke-width:0.05;stroke-opacity:1"
     id="path19358"
     cx="19.907463"
     cy="10.752712"
     r="0.2868053" />
  <circle
     style="fill:#757f3f;fill-opacity:1;stroke:#757f3f;stroke-width:0.05;stroke-opacity:1"
     id="path19360"
     cx="17.532885"
     cy="7.3264489"
     r="0.29533693" />
  <circle
     style="fill:#757f3f;fill-opacity:1;stroke:#757f3f;stroke-width:0.05;stroke-opacity:1"
     id="path19362"
     cx="6.6681681"
     cy="20.990057"
     r="0.28555769" />
  <circle
     style="fill:#757f3f;fill-opacity:1;stroke:#757f3f;stroke-width:0.05;stroke-opacity:1"
     id="path19364"
     cx="2.4507504"
     cy="20.469696"
     r="0.2637808" />
  <circle
     style="fill:#757f3f;fill-opacity:1;stroke:#757f3f;stroke-width:0.05;stroke-opacity:1"
     id="path19366"
     cx="21.664385"
     cy="3.9610806"
     r="0.33212337" />
</svg>
