<svg width="24" height="24" viewBox="0 0 24 24" fill="none" xmlns="http://www.w3.org/2000/svg">
<path d="M19.7203 12.1275C19.6444 12.0834 19.5609 12.0412 19.4747 12C19.5609 11.9587 19.6444 11.9166 19.7203 11.8725C20.1502 11.6281 20.5276 11.301 20.8306 10.9101C21.1336 10.5193 21.3563 10.0724 21.4859 9.59508C21.6154 9.11781 21.6493 8.61962 21.5856 8.1292C21.5218 7.63877 21.3617 7.1658 21.1144 6.73751C20.8671 6.30922 20.5376 5.93407 20.1447 5.63366C19.7519 5.33326 19.3035 5.11352 18.8254 4.98712C18.3472 4.86071 17.8488 4.83012 17.3588 4.89712C16.8689 4.96412 16.397 5.12737 15.9703 5.37749C15.8944 5.42155 15.8156 5.47124 15.7378 5.52655C15.7453 5.4328 15.75 5.33905 15.75 5.2453C15.75 4.25074 15.3549 3.29691 14.6517 2.59365C13.9484 1.89039 12.9946 1.4953 12 1.4953C11.0054 1.4953 10.0516 1.89039 9.34835 2.59365C8.64509 3.29691 8.25 4.25074 8.25 5.2453C8.25 5.33343 8.25 5.42718 8.26219 5.52655C8.18438 5.47311 8.10563 5.42155 8.02969 5.37749C7.60305 5.12737 7.13115 4.96412 6.64116 4.89712C6.15117 4.83012 5.65276 4.86071 5.17464 4.98712C4.69652 5.11352 4.24812 5.33326 3.85527 5.63366C3.46241 5.93407 3.13286 6.30922 2.88558 6.73751C2.6383 7.1658 2.47817 7.63877 2.41443 8.1292C2.35068 8.61962 2.38458 9.11781 2.51415 9.59508C2.64373 10.0724 2.86643 10.5193 3.16944 10.9101C3.47244 11.301 3.84977 11.6281 4.27969 11.8725C4.35563 11.9166 4.43907 11.9587 4.52532 12C4.43907 12.0412 4.35563 12.0834 4.27969 12.1275C3.84977 12.3719 3.47244 12.699 3.16944 13.0898C2.86643 13.4807 2.64373 13.9276 2.51415 14.4049C2.38458 14.8822 2.35068 15.3804 2.41443 15.8708C2.47817 16.3612 2.6383 16.8342 2.88558 17.2625C3.13286 17.6908 3.46241 18.0659 3.85527 18.3663C4.24812 18.6667 4.69652 18.8865 5.17464 19.0129C5.65276 19.1393 6.15117 19.1699 6.64116 19.1029C7.13115 19.0359 7.60305 18.8726 8.02969 18.6225C8.10563 18.5784 8.18438 18.5287 8.26219 18.4734C8.25469 18.5672 8.25 18.6609 8.25 18.75C8.25 19.7445 8.64509 20.6984 9.34835 21.4016C10.0516 22.1049 11.0054 22.5 12 22.5C12.9946 22.5 13.9484 22.1049 14.6517 21.4016C15.3549 20.6984 15.75 19.7445 15.75 18.75C15.75 18.6619 15.7453 18.5681 15.7378 18.4734C15.8156 18.5269 15.8944 18.5784 15.9703 18.6225C16.5384 18.9516 17.1832 19.1249 17.8397 19.125C18.1696 19.1246 18.498 19.0811 18.8166 18.9956C19.533 18.8036 20.1764 18.4034 20.6654 17.8458C21.1543 17.2881 21.467 16.5979 21.5637 15.8626C21.6605 15.1272 21.5369 14.3797 21.2088 13.7145C20.8807 13.0493 20.3627 12.4964 19.7203 12.1256V12.1275ZM9.75 12C9.75 11.555 9.88196 11.12 10.1292 10.75C10.3764 10.3799 10.7278 10.0916 11.139 9.92126C11.5501 9.75096 12.0025 9.7064 12.439 9.79322C12.8754 9.88004 13.2763 10.0943 13.591 10.409C13.9057 10.7237 14.12 11.1246 14.2068 11.561C14.2936 11.9975 14.249 12.4499 14.0787 12.861C13.9084 13.2722 13.62 13.6236 13.25 13.8708C12.88 14.118 12.445 14.25 12 14.25C11.4033 14.25 10.831 14.0129 10.409 13.591C9.98706 13.169 9.75 12.5967 9.75 12ZM16.7203 6.67593C16.9762 6.52819 17.2587 6.4323 17.5516 6.39373C17.8446 6.35517 18.1423 6.37468 18.4277 6.45116C18.7131 6.52764 18.9806 6.65958 19.2151 6.83946C19.4495 7.01934 19.6462 7.24363 19.7939 7.49952C19.9416 7.75541 20.0375 8.0379 20.0761 8.33085C20.1147 8.6238 20.0952 8.92148 20.0187 9.20689C19.9422 9.4923 19.8103 9.75985 19.6304 9.99427C19.4505 10.2287 19.2262 10.4254 18.9703 10.5731C18.3825 10.9134 17.2256 11.1478 15.6741 11.2472C15.5104 10.4534 15.094 9.73409 14.4872 9.19686C15.3497 7.90124 16.1325 7.01624 16.7203 6.67593ZM12 2.99999C12.5967 2.99999 13.169 3.23704 13.591 3.659C14.013 4.08095 14.25 4.65325 14.25 5.24999C14.25 5.92874 13.875 7.04905 13.185 8.44311C12.416 8.18562 11.584 8.18562 10.815 8.44311C10.125 7.04905 9.75 5.92874 9.75 5.24999C9.75 4.65325 9.98706 4.08095 10.409 3.659C10.831 3.23704 11.4033 2.99999 12 2.99999ZM4.20563 7.49999C4.35332 7.24399 4.55001 7.0196 4.78444 6.83963C5.01888 6.65966 5.28647 6.52765 5.57194 6.45112C5.85741 6.3746 6.15516 6.35506 6.44818 6.39363C6.7412 6.43221 7.02375 6.52813 7.27969 6.67593C7.8675 7.01624 8.65032 7.90124 9.51282 9.19686C8.90551 9.73483 8.48905 10.4552 8.32594 11.25C6.77438 11.1506 5.6175 10.9162 5.02969 10.5769C4.77332 10.4292 4.5486 10.2324 4.36839 9.9977C4.18818 9.76304 4.05602 9.49515 3.97947 9.20935C3.90293 8.92355 3.8835 8.62546 3.92231 8.33214C3.96112 8.03883 4.05739 7.75605 4.20563 7.49999ZM7.27969 17.324C6.76289 17.6224 6.14873 17.7033 5.57232 17.5488C4.99591 17.3944 4.50447 17.0173 4.2061 16.5005C3.90773 15.9837 3.82688 15.3695 3.98133 14.7931C4.13578 14.2167 4.51289 13.7252 5.02969 13.4269C5.6175 13.0866 6.77438 12.8522 8.32594 12.7528C8.48962 13.5465 8.90603 14.2659 9.51282 14.8031C8.65032 16.0987 7.8675 16.9837 7.27969 17.324ZM12 21C11.4033 21 10.831 20.7629 10.409 20.341C9.98706 19.919 9.75 19.3467 9.75 18.75C9.75 18.0712 10.125 16.9509 10.815 15.5569C11.584 15.8144 12.416 15.8144 13.185 15.5569C13.875 16.9509 14.25 18.0712 14.25 18.75C14.25 19.3467 14.013 19.919 13.591 20.341C13.169 20.7629 12.5967 21 12 21ZM19.7944 16.5C19.6467 16.756 19.45 16.9804 19.2156 17.1603C18.9811 17.3403 18.7135 17.4723 18.4281 17.5489C18.1426 17.6254 17.8448 17.6449 17.5518 17.6063C17.2588 17.5678 16.9763 17.4718 16.7203 17.324C16.1325 16.9837 15.3497 16.0987 14.4872 14.8031C15.0945 14.2651 15.511 13.5447 15.6741 12.75C17.2256 12.8494 18.3825 13.0837 18.9703 13.4231C19.2267 13.5708 19.4514 13.7676 19.6316 14.0023C19.8118 14.2369 19.944 14.5048 20.0205 14.7906C20.0971 15.0764 20.1165 15.3745 20.0777 15.6678C20.0389 15.9611 19.9426 16.2439 19.7944 16.5Z" fill="#FF97FB"/>
</svg>
