<?xml version="1.0" encoding="UTF-8" standalone="no"?>
<svg
   width="24"
   height="24"
   viewBox="0 0 24 24"
   fill="none"
   version="1.1"
   id="svg6"
   sodipodi:docname="fruit_bush.svg"
   inkscape:version="1.1.2 (0a00cf5339, 2022-02-04)"
   xmlns:inkscape="http://www.inkscape.org/namespaces/inkscape"
   xmlns:sodipodi="http://sodipodi.sourceforge.net/DTD/sodipodi-0.dtd"
   xmlns="http://www.w3.org/2000/svg"
   xmlns:svg="http://www.w3.org/2000/svg">
  <defs
     id="defs10" />
  <sodipodi:namedview
     id="namedview8"
     pagecolor="#ffffff"
     bordercolor="#666666"
     borderopacity="1.0"
     inkscape:pageshadow="2"
     inkscape:pageopacity="0.0"
     inkscape:pagecheckerboard="0"
     showgrid="false"
     inkscape:zoom="18.083333"
     inkscape:cx="3.1520737"
     inkscape:cy="9.4285714"
     inkscape:window-width="1916"
     inkscape:window-height="1041"
     inkscape:window-x="0"
     inkscape:window-y="18"
     inkscape:window-maximized="1"
     inkscape:current-layer="svg6" />
  <path
     d="M12.3629 20V14.4737L10.784 12.8947"
     stroke="#0FA958"
     stroke-width="2"
     stroke-linecap="round"
     stroke-linejoin="round"
     id="path2" />
  <path
     d="M13.9419 13.6842L12.3629 15.2632M16.3103 8.94737V9.57895C17.2281 10.1057 17.943 10.9246 18.3412 11.9051C18.7393 12.8855 18.7977 13.971 18.5069 14.9885C18.2162 16.006 17.5932 16.8968 16.7372 17.519C15.8812 18.1411 14.8415 18.4587 13.784 18.4211H10.784C9.70157 18.3476 8.6703 17.9329 7.83829 17.2367C7.00628 16.5404 6.41635 15.5984 6.15322 14.5459C5.89009 13.4933 5.96731 12.3845 6.37379 11.3786C6.78026 10.3728 7.49508 9.52158 8.41557 8.94737C8.41557 7.90046 8.83145 6.89643 9.57172 6.15616C10.312 5.41588 11.316 5 12.3629 5C13.4098 5 14.4139 5.41588 15.1541 6.15616C15.8944 6.89643 16.3103 7.90046 16.3103 8.94737Z"
     stroke="#0FA958"
     stroke-width="2"
     stroke-linecap="round"
     stroke-linejoin="round"
     id="path4" />
  <circle
     style="fill:#ed3114;fill-opacity:1;stroke:none;stroke-width:0.0390837;stroke-miterlimit:4;stroke-dasharray:none"
     id="path849"
     cx="11.418601"
     cy="7.9447474"
     r="0.5786711" />
  <circle
     style="fill:#ed3114;fill-opacity:1;stroke:none;stroke-width:0.0390837;stroke-miterlimit:4;stroke-dasharray:none"
     id="path849-3"
     cx="14.764977"
     cy="15.898618"
     r="0.5786711" />
  <circle
     style="fill:#ed3114;fill-opacity:1;stroke:none;stroke-width:0.0390837;stroke-miterlimit:4;stroke-dasharray:none"
     id="path849-6"
     cx="14.654378"
     cy="9.5668201"
     r="0.5786711" />
  <circle
     style="fill:#ed3114;fill-opacity:1;stroke:none;stroke-width:0.0390837;stroke-miterlimit:4;stroke-dasharray:none"
     id="path849-7"
     cx="8.4331799"
     cy="15.124424"
     r="0.5786711" />
</svg>
