<svg width="24" height="24" viewBox="0 0 24 24" fill="none" xmlns="http://www.w3.org/2000/svg">
<path d="M2 20V18H7.75C7.38333 16.5833 6.68767 15.3623 5.663 14.337C4.63833 13.3117 3.41733 12.616 2 12.25C2.33333 12.1667 2.66267 12.104 2.988 12.062C3.31333 12.02 3.65067 11.9993 4 12C6.23333 12 8.125 12.775 9.675 14.325C11.225 15.875 12 17.7667 12 20H2ZM14 20C14 19.3 13.925 18.6043 13.775 17.913C13.625 17.2217 13.4083 16.559 13.125 15.925C13.825 14.7417 14.7793 13.7917 15.988 13.075C17.1967 12.3583 18.534 12 20 12C20.35 12 20.6873 12.021 21.012 12.063C21.3367 12.105 21.666 12.1673 22 12.25C20.5833 12.6167 19.3667 13.3123 18.35 14.337C17.3333 15.3617 16.6333 16.5827 16.25 18H22V20H14ZM12 14.025C12 12.9417 12.2 11.925 12.6 10.975C13 10.025 13.55 9.18733 14.25 8.462C14.95 7.73733 15.771 7.15833 16.713 6.725C17.655 6.29167 18.659 6.05833 19.725 6.025C18.7917 6.60833 17.975 7.325 17.275 8.175C16.575 9.025 16.0333 9.975 15.65 11.025C14.9167 11.375 14.246 11.8043 13.638 12.313C13.03 12.8217 12.484 13.393 12 14.025ZM10.175 12.15C9.975 12 9.775 11.8583 9.575 11.725C9.375 11.5917 9.16667 11.4583 8.95 11.325C8.95 11.225 8.95833 11.1207 8.975 11.012C8.99167 10.9033 9 10.7993 9 10.7C9 9.43333 8.8 8.23333 8.4 7.1C8 5.96667 7.43333 4.93333 6.7 4C7.8 4.45 8.75433 5.09567 9.563 5.937C10.3717 6.77833 10.9923 7.74933 11.425 8.85C11.125 9.35 10.8667 9.87933 10.65 10.438C10.4333 10.9967 10.275 11.5673 10.175 12.15Z" fill="#0AE060"/>
</svg>
