<svg width="24" height="24" viewBox="0 0 24 24" fill="none" xmlns="http://www.w3.org/2000/svg">
<path d="M21.2369 8.6923C21.2369 8.6923 21.0991 8.62177 20.8867 8.55148C20.6723 8.47751 20.3838 8.40465 20.0636 8.36517C19.4233 8.28671 18.6924 8.40922 18.0779 8.74649C17.4623 9.08204 16.9621 9.63062 16.6762 10.207C16.5337 10.4961 16.4358 10.7755 16.3797 10.9939C16.3771 11.0033 16.3748 11.0125 16.3724 11.0217C15.4876 11.3367 14.4153 11.5415 13.1567 11.421L13.2532 11.2941L13.5124 10.9522L13.7572 10.6101L13.8772 10.4421L13.9909 10.2725L14.2122 9.93969C14.2849 9.8305 14.3504 9.71836 14.418 9.61072C14.4845 9.50222 14.5511 9.39658 14.614 9.29119L14.7926 8.97701C14.8501 8.87395 14.9095 8.77509 14.9618 8.67493L15.1141 8.38131L15.2582 8.10261L15.3841 7.8342L15.5019 7.58271L15.5573 7.46342L15.6064 7.34655L15.7822 6.92722C15.8283 6.82224 15.8632 6.72441 15.8955 6.63675C16.1697 6.68276 16.5148 6.71403 16.8883 6.70589C17.7171 6.68726 18.6238 6.39633 19.343 5.85376C20.0638 5.31327 20.5984 4.52308 20.8555 3.73719C20.9833 3.34321 21.0561 2.96977 21.0871 2.68163C21.121 2.39741 21.1146 2.20043 21.1146 2.20039V2.20035C21.1146 2.20035 20.9263 2.13611 20.6433 2.08601C20.3569 2.03158 19.9766 1.99226 19.562 2.00129C18.7332 2.01993 17.8264 2.31085 17.1072 2.85343C16.3865 3.39396 15.8518 4.1841 15.5947 4.96999C15.5185 5.2052 15.4577 5.44516 15.413 5.68833C15.378 5.72279 15.3496 5.76327 15.329 5.80783L15.3214 5.82438L15.2319 6.0191L15.1246 6.25273C15.0817 6.34431 15.0365 6.45138 14.975 6.5663L14.7787 6.94986L14.7242 7.05652L14.6631 7.16514L14.5339 7.39379L14.3965 7.63731L14.2406 7.88941L14.0766 8.15438C14.0205 8.24466 13.9571 8.33362 13.8958 8.42626C13.8325 8.5203 13.7692 8.61435 13.7059 8.7084C13.6393 8.80292 13.5688 8.89761 13.4987 8.99471C13.4274 9.09107 13.3585 9.19127 13.2821 9.28886C13.1653 9.4384 13.0486 9.58796 12.9319 9.73753L12.8073 9.88783L12.5541 10.1936L12.2861 10.4994L12.1501 10.6543L12.0087 10.8076L11.722 11.1172L11.6277 11.2146C11.6352 10.6768 11.4714 10.2049 11.3179 9.7627C11.1622 9.31416 11.0132 8.884 11.0275 8.39578C11.1953 8.26043 11.3906 8.0769 11.5777 7.85712C11.9955 7.36559 12.2953 6.68795 12.3519 5.98919C12.4104 5.29059 12.2275 4.5711 11.9036 4.01516C11.7406 3.73711 11.5611 3.50164 11.4097 3.33458C11.262 3.16785 11.1441 3.06969 11.1441 3.06965C11.1441 3.06965 11.0094 3.14591 10.8339 3.28456C10.6541 3.42289 10.4345 3.62371 10.2254 3.86939C9.80755 4.36089 9.50772 5.03857 9.45116 5.73733C9.39264 6.43593 9.57551 7.15542 9.89946 7.71136C10.0624 7.98941 10.2419 8.22488 10.3934 8.39194C10.4019 8.40154 10.4103 8.41086 10.4186 8.41997C10.4106 9.00378 10.5845 9.50504 10.7433 9.96221C10.975 10.6299 11.1814 11.2258 10.8359 12.0115C10.8249 12.0221 10.8143 12.0328 10.8032 12.0434C10.3802 12.4549 9.93619 12.8636 9.48855 13.2723C9.03857 13.6809 8.58859 14.0895 8.13863 14.4981C7.77504 14.8289 7.41614 15.1648 7.06206 15.5058C7.14927 14.5448 7.10529 13.6245 6.93035 12.7857C6.99777 12.5945 7.05398 12.3996 7.09867 12.2019C7.26896 11.4428 7.20889 10.5512 6.87726 9.77361C6.54784 8.99503 5.94904 8.32957 5.29134 7.91789C4.96139 7.7125 4.63773 7.56183 4.38232 7.46845C4.13112 7.37331 3.95029 7.33461 3.95025 7.33461C3.95025 7.33461 3.84914 7.49162 3.73954 7.73804C3.62528 7.98651 3.50354 8.3241 3.41805 8.7037C3.24776 9.46274 3.30783 10.3543 3.63946 11.132C3.96888 11.9105 4.56773 12.576 5.22538 12.9877C5.55533 13.1931 5.87899 13.3437 6.13444 13.4371C6.23435 13.475 6.33581 13.5087 6.43857 13.538C6.53869 14.3666 6.51315 15.2665 6.36219 16.1981C6.11896 16.4487 5.88035 16.7037 5.64651 16.9631L5.37806 17.2695L5.31222 17.3449L5.2488 17.422C5.20705 17.4728 5.16528 17.5236 5.1235 17.5745L5.00034 17.7246C4.95943 17.774 4.91918 17.8232 4.88125 17.8742L4.65481 18.1708C4.61816 18.2196 4.58048 18.2666 4.54583 18.3156L4.44329 18.4612L4.24542 18.7428C4.21256 18.7881 4.18302 18.8351 4.15339 18.8812L4.06577 19.0176L3.89822 19.2793C3.79336 19.451 3.70231 19.6168 3.61535 19.7682C3.59377 19.8066 3.5724 19.8423 3.55303 19.8813L3.4961 19.9964C3.45916 20.0715 3.42349 20.1429 3.39124 20.2115L3.29909 20.4056C3.26803 20.4694 3.25132 20.5171 3.2308 20.5661C3.19141 20.6621 3.16031 20.7447 3.13411 20.8114C3.10777 20.8797 3.08235 20.9483 3.05786 21.0173C2.88696 21.5069 3.1044 22.0585 3.58151 22.293C4.0972 22.5466 4.72077 22.334 4.9743 21.8183C4.9743 21.8183 5.00806 21.7497 5.06731 21.6194C5.09633 21.5539 5.13327 21.4737 5.17393 21.3782C5.21582 21.2759 5.26114 21.1904 5.31096 21.0849C5.33637 21.033 5.36138 20.9774 5.38811 20.9194L5.4289 20.8301C5.44308 20.7997 5.4613 20.7671 5.47724 20.7342L5.58067 20.5287C5.61737 20.458 5.65076 20.3824 5.69195 20.3074L5.8201 20.075L5.88696 19.9534C5.90952 19.9122 5.93187 19.8703 5.9579 19.8293L6.11278 19.5746L6.19292 19.4424C6.22006 19.3979 6.25071 19.3544 6.27993 19.3096L6.46117 19.036C6.4912 18.9891 6.52414 18.943 6.55773 18.8966L6.65851 18.7558L6.761 18.6124L6.81286 18.5398L6.85814 18.4805C7.3473 18.538 7.82964 18.5671 8.30046 18.5671C8.99869 18.5671 9.67171 18.5044 10.3053 18.3815C10.3026 18.401 10.3013 18.412 10.3013 18.412C10.3013 18.412 10.5027 18.5151 10.8132 18.6178C11.1265 18.7259 11.5483 18.8325 12.0163 18.8902C12.9523 19.0048 14.0204 18.8258 14.9187 18.3328C15.8184 17.8424 16.5495 17.0405 16.9674 16.198C17.1757 15.7755 17.3188 15.3671 17.4009 15.0479C17.4856 14.7335 17.5106 14.5108 17.5106 14.5107H17.5107V14.5107H17.5106C17.5106 14.5107 17.3092 14.4076 16.9988 14.3049C16.6855 14.1968 16.2637 14.0902 15.7957 14.0325C14.8598 13.9179 13.7916 14.0969 12.8932 14.5899C11.9936 15.0803 11.2625 15.8822 10.8445 16.7246C10.6664 17.0861 10.5363 17.4367 10.4509 17.7305C9.49182 17.948 8.42109 18.0123 7.29982 17.9146C7.55249 17.6018 7.8231 17.2804 8.11574 16.9563C8.48791 16.5404 8.88402 16.1153 9.29807 15.6847C9.71057 15.253 10.1375 14.8169 10.5621 14.3708C10.9863 13.9244 11.4108 13.4744 11.8187 13.0171C11.9218 12.9045 12.0209 12.7872 12.1215 12.6734C12.2215 12.559 12.3215 12.4457 12.4177 12.3292L12.7067 11.9851L12.7104 11.9804C13.129 12.0405 13.5291 12.0687 13.912 12.0687C14.969 12.0687 15.8978 11.857 16.7416 11.5306C16.9443 11.5943 17.1991 11.654 17.4779 11.6884C18.1182 11.7668 18.849 11.6443 19.4636 11.3071C20.0791 10.9716 20.5793 10.423 20.8653 9.84656C21.0078 9.55747 21.1056 9.27807 21.1618 9.05964C21.2197 8.84477 21.2369 8.69238 21.2369 8.6923Z" fill="#28C92B"/>
</svg>
