<?xml version="1.0" encoding="UTF-8" standalone="no"?>
<svg
   width="24"
   height="24"
   viewBox="0 0 24 24"
   fill="none"
   version="1.1"
   id="svg10239"
   sodipodi:docname="leaf_tree.svg"
   inkscape:version="1.1.2 (0a00cf5339, 2022-02-04)"
   xmlns:inkscape="http://www.inkscape.org/namespaces/inkscape"
   xmlns:sodipodi="http://sodipodi.sourceforge.net/DTD/sodipodi-0.dtd"
   xmlns="http://www.w3.org/2000/svg"
   xmlns:svg="http://www.w3.org/2000/svg">
  <defs
     id="defs10243" />
  <sodipodi:namedview
     id="namedview10241"
     pagecolor="#ffffff"
     bordercolor="#666666"
     borderopacity="1.0"
     inkscape:pageshadow="2"
     inkscape:pageopacity="0.0"
     inkscape:pagecheckerboard="0"
     showgrid="false"
     inkscape:zoom="18.083333"
     inkscape:cx="6.7465438"
     inkscape:cy="13.24424"
     inkscape:window-width="1916"
     inkscape:window-height="1041"
     inkscape:window-x="0"
     inkscape:window-y="18"
     inkscape:window-maximized="1"
     inkscape:current-layer="svg10239" />
  <path
     d="M18.5719 5.86875C18.0293 4.57335 17.116 3.46719 15.9468 2.68923C14.7775 1.91127 13.4044 1.49622 12 1.49622C10.5956 1.49622 9.22247 1.91127 8.05321 2.68923C6.88394 3.46719 5.97067 4.57335 5.42812 5.86875C4.26052 6.40945 3.27103 7.27145 2.5754 8.35391C1.87977 9.43638 1.50675 10.6945 1.5 11.9812C1.48968 15.6206 4.44 18.6562 8.07562 18.75C9.17543 18.7787 10.2655 18.5369 11.25 18.0459V21.75C11.25 21.9489 11.329 22.1397 11.4697 22.2803C11.6103 22.421 11.8011 22.5 12 22.5C12.1989 22.5 12.3897 22.421 12.5303 22.2803C12.671 22.1397 12.75 21.9489 12.75 21.75V18.0459C13.6817 18.5106 14.7089 18.7516 15.75 18.75H15.9244C19.56 18.6562 22.5103 15.6225 22.5 11.9831C22.4937 10.6961 22.1209 9.43746 21.4252 8.35461C20.7296 7.27176 19.7398 6.40949 18.5719 5.86875ZM15.8859 17.25C14.8028 17.2802 13.7372 16.9722 12.8372 16.3687C12.8078 16.35 12.7787 16.3322 12.75 16.3153V12.4631L16.8356 10.4212C16.9238 10.3772 17.0024 10.3162 17.0669 10.2417C17.1315 10.1673 17.1808 10.0808 17.212 9.98732C17.2431 9.89382 17.2556 9.7951 17.2486 9.6968C17.2416 9.59849 17.2153 9.50252 17.1712 9.41437C17.1272 9.32622 17.0662 9.24762 16.9917 9.18304C16.9173 9.11847 16.8308 9.06919 16.7373 9.03803C16.6438 9.00686 16.5451 8.99442 16.4468 9.00141C16.3485 9.00839 16.2525 9.03467 16.1644 9.07875L12.75 10.7869V8.25C12.75 8.05109 12.671 7.86032 12.5303 7.71967C12.3897 7.57902 12.1989 7.5 12 7.5C11.8011 7.5 11.6103 7.57902 11.4697 7.71967C11.329 7.86032 11.25 8.05109 11.25 8.25V13.0369L7.83562 11.3287C7.65759 11.2397 7.4515 11.2251 7.26267 11.288C7.07385 11.351 6.91776 11.4863 6.82875 11.6644C6.73973 11.8424 6.72509 12.0485 6.78803 12.2373C6.85097 12.4261 6.98634 12.5822 7.16437 12.6712L11.25 14.7131V16.3125C11.2206 16.3294 11.1916 16.3472 11.1628 16.3659C10.2629 16.9699 9.19743 17.2788 8.11406 17.25C6.92833 17.2204 5.78758 16.7901 4.87763 16.0293C3.96769 15.2685 3.34217 14.222 3.103 13.0603C2.86383 11.8986 3.02509 10.6901 3.56051 9.6317C4.09593 8.57333 4.97396 7.72746 6.05156 7.23187C6.39237 7.07572 6.66183 6.79688 6.80625 6.45093C7.23435 5.42781 7.95535 4.55407 8.87863 3.93955C9.8019 3.32503 10.8862 2.99717 11.9953 2.99717C13.1044 2.99717 14.1887 3.32503 15.112 3.93955C16.0353 4.55407 16.7563 5.42781 17.1844 6.45093C17.3288 6.79688 17.5982 7.07572 17.9391 7.23187C19.0167 7.72746 19.8947 8.57333 20.4301 9.6317C20.9655 10.6901 21.1268 11.8986 20.8876 13.0603C20.6484 14.222 20.0229 15.2685 19.113 16.0293C18.203 16.7901 17.0623 17.2204 15.8766 17.25H15.8859Z"
     fill="white"
     id="path10237"
     style="fill:#3ea10d;fill-opacity:1" />
</svg>
