<?xml version="1.0" encoding="UTF-8" standalone="no"?>
<svg
   width="24"
   height="24"
   viewBox="0 0 24 24"
   fill="none"
   version="1.1"
   id="svg19657"
   sodipodi:docname="lettuce.svg"
   inkscape:version="1.1.2 (0a00cf5339, 2022-02-04)"
   xmlns:inkscape="http://www.inkscape.org/namespaces/inkscape"
   xmlns:sodipodi="http://sodipodi.sourceforge.net/DTD/sodipodi-0.dtd"
   xmlns="http://www.w3.org/2000/svg"
   xmlns:svg="http://www.w3.org/2000/svg">
  <defs
     id="defs19661" />
  <sodipodi:namedview
     id="namedview19659"
     pagecolor="#ffffff"
     bordercolor="#666666"
     borderopacity="1.0"
     inkscape:pageshadow="2"
     inkscape:pageopacity="0.0"
     inkscape:pagecheckerboard="0"
     showgrid="false"
     inkscape:zoom="25.573695"
     inkscape:cx="12.121831"
     inkscape:cy="11.515739"
     inkscape:window-width="1916"
     inkscape:window-height="1041"
     inkscape:window-x="0"
     inkscape:window-y="18"
     inkscape:window-maximized="1"
     inkscape:current-layer="svg19657" />
  <path
     d="M4.6875 6.14999C4.725 6.78749 5.025 8.92499 4.7625 9.89999C6.4125 10.2 5.175 7.01249 4.6875 6.14999Z"
     fill="#699635"
     id="path19645" />
  <path
     d="M 20.85,10.3875 C 21.6,8.66251 20.4375,6.86251 19.6875,7.91251 c -0.75,1.05 -0.1875,1.725 -2.1,1.35 -0.4125,-0.7125 0.6,-2.8875 0,-3.3 -0.975,-0.6375 -0.975,1.7625 -2.1,0.375 -1.125,-1.35 -1.1625,1.8375 -2.85,1.8375 -0.825,0 0.3375,-2.475 -1.5375,-2.9625 -1.875,-0.4875 -1.35,1.65 -3.6,0.4125 C 5.25,4.38751 4.0875,6.26251 5.1375,7.05001 6.15,7.83751 5.325,9.41251 5.175,10.0125 3.9,9.41251 3.975,12 4.0125,12.4125 c -0.9,0.3 -2.3625,0.9375 -2.4,0.975 0.9375,2.25 1.9623052,5.258359 7.0498552,5.614498 2.4893848,0.174263 6.2418938,0.420436 8.7096648,-0.670472 3.244061,-1.434076 5.16548,-4.36425 5.16548,-5.919026 0,-2.77499 -2.925,0.7875 -1.6875,-2.025 z"
     fill="#83bf4f"
     id="path19647"
     sodipodi:nodetypes="cscccsssccccsssc" />
  <path
     d="M 14.3625,13.5 C 15.3,11.5125 13.0125,12.3375 12.15,13.2 12.1125,11.775 12.8625,10.875 13.5,9.89999 12.45,10.65 11.325,11.5125 10.0875,11.9625 10.8,12.7875 11.175,13.9125 11.325,15 c 3,0.3 2.444139,3.39758 2.294139,4.11008 C 18.643521,18.9975 13.4625,15.45 14.3625,13.5 Z"
     fill="#699635"
     id="path19649"
     sodipodi:nodetypes="ccccccc" />
  <path
     d="M9.78751 7.5C8.32501 7.575 7.65001 11.3625 6.60001 11.1375C7.46251 11.9625 7.91251 13.2 7.91251 14.4C8.13751 14.4375 8.47501 13.8 8.66251 14.475C8.40001 12.4125 8.47501 10.1625 9.78751 7.5Z"
     fill="#699635"
     id="path19651" />
  <path
     d="M18.7875 9.37499C15.6 8.99999 15.1125 8.92499 17.775 11.5875C18.4875 12.4875 15.7875 14.4 14.8125 14.5875C16.05 16.95 16.275 17.175 18 16.575C20.4 15.75 19.2 12.9375 20.325 13.5375C19.725 12.6375 16.35 12.225 18.7875 9.37499Z"
     fill="#699635"
     id="path19653" />
  <path
     d="M20.7375 11.2875C20.6625 10.875 21.5625 9.93749 21.375 8.62499C21.1875 7.42499 19.8 6.71249 19.3875 8.09999C19.0125 9.37499 17.8125 9.07499 17.8125 9.07499C18.6 5.99999 18.1875 4.49999 16.4625 6.33749C15.5625 7.27499 16.3875 3.14999 13.5375 7.53749C12.075 9.78749 12.675 2.39999 10.05 5.09999C7.95 7.23749 6.3375 3.07499 4.95 5.58749C4.2375 6.89999 5.775 7.08749 5.3625 9.63749C5.3625 9.63749 3.7875 8.66249 3.9375 11.8875C3.975 12.45 1.1625 12.5625 1.8 13.5C2.4375 13.2375 6.45 11.325 6.225 13.0875C6.15 13.6125 5.8125 15.3 6.75 15.225C7.7625 15.15 8.7 13.575 8.7375 15.375C8.775 16.7625 9.45 16.8375 10.425 15.975C10.6875 15.75 10.875 15.375 11.25 15.225C11.925 14.9625 12.5625 15.3375 13.2 15.5625C14.4 16.0125 14.0625 14.325 13.2375 14.025C13.0875 13.9875 12.15 13.8375 12.225 13.6875C12.375 13.2375 12.9 12.9375 13.275 12.75C13.6125 12.6 13.9875 12.4875 14.3625 12.4875C14.8875 12.525 14.7 12.8625 14.5875 13.275C14.475 13.7625 14.55 14.4 15.075 14.55C15.675 14.7375 16.1625 14.175 16.575 13.8375C16.875 13.575 18.8625 12.3 18.1875 13.65C17.775 14.4375 15.7875 14.7 16.6875 15.8625C17.2875 16.6125 18.1125 16.275 18.5625 15.5625C18.9375 15 19.0875 14.325 19.2375 13.65C19.35 13.125 19.3875 12.825 19.9125 13.0875C20.625 13.4625 21.525 14.2875 21.5625 12.9375C21.6 12.0375 21.9375 10.3875 22.725 11.9625C22.2375 9.89999 20.8125 11.85 20.7375 11.2875ZM15.8625 13.8375C15.825 13.875 14.8875 14.55 14.7375 13.9125C14.625 13.425 15.1125 12.8625 14.8125 12.45C14.2875 11.7375 12.9 12.4125 12.375 12.7875C12.075 13.0125 11.325 13.725 11.8875 14.0625C12.3 14.325 12.9375 14.175 13.3125 14.55C13.6125 14.85 13.6875 15.4125 13.1625 15.1875C12.4875 14.925 11.8125 14.5875 11.0625 14.8875C10.65 15.0375 9.6375 16.5375 9.15 16.2375C8.8875 16.0875 9 15.0375 8.9625 14.7375C8.85 13.875 8.25 14.025 7.6875 14.3625C7.4625 14.5125 6.7875 15 6.525 14.8125C6.2625 14.625 6.4125 13.8 6.45 13.5375C6.6375 11.925 5.5875 11.775 4.2375 12.15C4.2375 11.6625 4.2 9.71249 5.1 10.05C5.625 10.2375 6.975 11.8875 7.4625 10.95C7.9875 9.93749 10.3125 5.47499 10.3125 8.81249C10.3125 9.71249 9.525 11.625 10.1625 12.075C10.725 12.45 12.15 10.875 12.525 10.65C13.4625 10.0125 14.5125 9.41249 15 10.8375C15.3375 11.775 15.4125 13.0125 16.575 13.275C16.275 13.4625 16.05 13.65 15.8625 13.8375ZM17.6625 12.2625C17.55 12.9375 16.7625 13.0875 16.2375 12.7875C15.15 12.15 15.75 9.93749 14.4 9.59999C12.7875 9.18749 10.6875 12 10.3875 11.7C10.0125 11.2875 10.8 9.56249 10.6875 8.43749C10.35 5.54999 8.1 8.36249 7.2 10.6875C7.0125 11.1375 5.625 9.93749 5.625 9.93749C6.3375 6.86249 4.65 6.89999 5.175 5.92499C6.2625 3.74999 7.875 7.94999 10.0875 5.66249C12.4875 3.22499 11.5875 11.1375 13.8375 7.79999C15.9 4.76249 15.5625 7.27499 16.0125 7.12499C16.8 6.86249 18.15 4.27499 17.4375 9.03749C12.975 8.21249 17.8875 10.95 17.6625 12.2625ZM20.9625 13.425C20.4 13.3125 19.8 12.3375 19.125 12.675C18.5625 12.9375 18.525 14.4375 18.3 14.9625C18.0375 15.6 17.175 16.3875 16.65 15.45C16.5375 15.225 18.15 14.2125 18.3375 13.7625C18.7125 12.9 17.925 12.825 18 12.2625C18.2625 10.5375 14.1375 8.81249 17.85 9.44999C19.95 9.82499 19.4625 7.23749 20.4375 7.79999C22.3125 8.92499 19.05 11.7375 21.15 11.775C21 12.3375 21.075 12.9 20.9625 13.425Z"
     fill="#C7E755"
     id="path19655" />
</svg>
