<?xml version="1.0" encoding="UTF-8" standalone="no"?>
<svg
   width="24"
   height="24"
   viewBox="0 0 24 24"
   fill="none"
   version="1.1"
   id="svg17072"
   sodipodi:docname="pine.svg"
   inkscape:version="1.1.2 (0a00cf5339, 2022-02-04)"
   xmlns:inkscape="http://www.inkscape.org/namespaces/inkscape"
   xmlns:sodipodi="http://sodipodi.sourceforge.net/DTD/sodipodi-0.dtd"
   xmlns="http://www.w3.org/2000/svg"
   xmlns:svg="http://www.w3.org/2000/svg">
  <defs
     id="defs17076" />
  <sodipodi:namedview
     id="namedview17074"
     pagecolor="#ffffff"
     bordercolor="#666666"
     borderopacity="1.0"
     inkscape:pageshadow="2"
     inkscape:pageopacity="0.0"
     inkscape:pagecheckerboard="0"
     showgrid="false"
     inkscape:zoom="18.083333"
     inkscape:cx="9.235023"
     inkscape:cy="11.253456"
     inkscape:window-width="1916"
     inkscape:window-height="1041"
     inkscape:window-x="0"
     inkscape:window-y="18"
     inkscape:window-maximized="1"
     inkscape:current-layer="svg17072" />
  <path
     d="M21 19.0714C21 19.2842 20.9226 19.4684 20.7677 19.6239C20.6128 19.7794 20.4293 19.8571 20.2174 19.8571H14.5679C14.5761 19.9963 14.6005 20.3544 14.6413 20.9314C14.6821 21.5084 14.7024 21.9524 14.7024 22.2634C14.7024 22.468 14.6291 22.6419 14.4823 22.7852C14.3356 22.9284 14.1603 23 13.9565 23H10.0435C9.83967 23 9.6644 22.9284 9.51766 22.7852C9.37092 22.6419 9.29755 22.468 9.29755 22.2634C9.29755 21.9524 9.31793 21.5084 9.3587 20.9314C9.39946 20.3544 9.42391 19.9963 9.43207 19.8571H3.78261C3.57065 19.8571 3.38723 19.7794 3.23234 19.6239C3.07745 19.4684 3 19.2842 3 19.0714C3 18.8586 3.07745 18.6745 3.23234 18.519L8.1481 13.5714H5.34783C5.13587 13.5714 4.95245 13.4937 4.79755 13.3382C4.64266 13.1827 4.56522 12.9985 4.56522 12.7857C4.56522 12.5729 4.64266 12.3888 4.79755 12.2333L9.71332 7.28571H7.30435C7.09239 7.28571 6.90897 7.20796 6.75408 7.05246C6.59918 6.89695 6.52174 6.7128 6.52174 6.5C6.52174 6.2872 6.59918 6.10305 6.75408 5.94754L11.4497 1.23326C11.6046 1.07775 11.788 1 12 1C12.212 1 12.3954 1.07775 12.5503 1.23326L17.2459 5.94754C17.4008 6.10305 17.4783 6.2872 17.4783 6.5C17.4783 6.7128 17.4008 6.89695 17.2459 7.05246C17.091 7.20796 16.9076 7.28571 16.6957 7.28571H14.2867L19.2024 12.2333C19.3573 12.3888 19.4348 12.5729 19.4348 12.7857C19.4348 12.9985 19.3573 13.1827 19.2024 13.3382C19.0476 13.4937 18.8641 13.5714 18.6522 13.5714H15.8519L20.7677 18.519C20.9226 18.6745 21 18.8586 21 19.0714Z"
     fill="white"
     id="path17070"
     style="fill:none;fill-opacity:1;stroke:#317d0d;stroke-opacity:1" />
</svg>
