<svg width="24" height="24" viewBox="0 0 24 24" fill="none" xmlns="http://www.w3.org/2000/svg">
<path d="M14.9752 5.9595C15.1131 5.9595 15.2497 5.93234 15.377 5.87957C15.5044 5.8268 15.6202 5.74946 15.7177 5.65196C15.8152 5.55446 15.8925 5.43871 15.9453 5.31131C15.9981 5.18392 16.0252 5.04739 16.0252 4.9095C16.0252 4.77161 15.9981 4.63507 15.9453 4.50768C15.8925 4.38029 15.8152 4.26454 15.7177 4.16703C15.6202 4.06953 15.5044 3.99219 15.377 3.93942C15.2497 3.88666 15.1131 3.8595 14.9752 3.8595C14.6968 3.8595 14.4297 3.97012 14.2328 4.16703C14.0359 4.36395 13.9252 4.63102 13.9252 4.9095C13.9252 5.18797 14.0359 5.45505 14.2328 5.65196C14.4297 5.84887 14.6968 5.9595 14.9752 5.9595ZM15.2452 10.122C15.2452 10.486 15.1006 10.8351 14.8432 11.0925C14.5858 11.3499 14.2367 11.4945 13.8727 11.4945C13.5087 11.4945 13.1596 11.3499 12.9022 11.0925C12.6448 10.8351 12.5002 10.486 12.5002 10.122C12.5002 9.75799 12.6448 9.40889 12.9022 9.15149C13.1596 8.8941 13.5087 8.7495 13.8727 8.7495C14.2367 8.7495 14.5858 8.8941 14.8432 9.15149C15.1006 9.40889 15.2452 9.75799 15.2452 10.122ZM8.75773 14.2545C8.75773 14.5887 8.62498 14.9092 8.38869 15.1455C8.15239 15.3817 7.8319 15.5145 7.49773 15.5145C7.16356 15.5145 6.84307 15.3817 6.60678 15.1455C6.37048 14.9092 6.23773 14.5887 6.23773 14.2545C6.23773 13.9203 6.37048 13.5998 6.60678 13.3635C6.84307 13.1272 7.16356 12.9945 7.49773 12.9945C7.8319 12.9945 8.15239 13.1272 8.38869 13.3635C8.62498 13.5998 8.75773 13.9203 8.75773 14.2545ZM8.48023 18.777C8.71097 18.777 8.93226 18.6853 9.09541 18.5222C9.25857 18.359 9.35023 18.1377 9.35023 17.907C9.35023 17.6763 9.25857 17.455 9.09541 17.2918C8.93226 17.1287 8.71097 17.037 8.48023 17.037C8.24949 17.037 8.02821 17.1287 7.86505 17.2918C7.70189 17.455 7.61023 17.6763 7.61023 17.907C7.61023 18.1377 7.70189 18.359 7.86505 18.5222C8.02821 18.6853 8.24949 18.777 8.48023 18.777ZM19.2427 10.992C19.2427 11.2227 19.1511 11.444 18.9879 11.6072C18.8248 11.7703 18.6035 11.862 18.3727 11.862C18.142 11.862 17.9207 11.7703 17.7575 11.6072C17.5944 11.444 17.5027 11.2227 17.5027 10.992C17.5027 10.7613 17.5944 10.54 17.7575 10.3768C17.9207 10.2137 18.142 10.122 18.3727 10.122C18.6035 10.122 18.8248 10.2137 18.9879 10.3768C19.1511 10.54 19.2427 10.7613 19.2427 10.992Z" fill="#B46A40"/>
<path d="M17.763 1.51575C16.0779 0.722111 14.1693 0.538998 12.3641 0.997767C10.5588 1.45654 8.96923 2.52864 7.86749 4.0305L3.93749 9.3855C0.695244 13.8015 2.29649 20.0805 7.25249 22.4107C11.628 24.4702 16.8315 22.5652 18.858 18.1837C19.4629 16.8785 20.0661 15.5725 20.6677 14.2657L21.6405 12.153C23.4855 8.148 21.7567 3.4005 17.763 1.51575ZM9.07799 4.91775C9.97376 3.69697 11.266 2.82546 12.7334 2.45237C14.2009 2.07927 15.7524 2.22779 17.1225 2.8725C20.3737 4.407 21.7792 8.2695 20.2792 11.5252L19.3065 13.6372V13.6387C18.819 14.6962 18.8077 14.7217 17.4967 17.5537C15.819 21.183 11.5117 22.7572 7.89224 21.0532C3.78899 19.1235 2.46449 13.9267 5.14724 10.2727L9.07724 4.91775H9.07799Z" fill="#B46A40"/>
</svg>
