<?xml version="1.0" encoding="UTF-8" standalone="no"?>
<svg
   width="24"
   height="24"
   viewBox="0 0 24 24"
   fill="none"
   version="1.1"
   id="svg1461"
   sodipodi:docname="rose.svg"
   inkscape:version="1.1.2 (0a00cf5339, 2022-02-04)"
   xmlns:inkscape="http://www.inkscape.org/namespaces/inkscape"
   xmlns:sodipodi="http://sodipodi.sourceforge.net/DTD/sodipodi-0.dtd"
   xmlns="http://www.w3.org/2000/svg"
   xmlns:svg="http://www.w3.org/2000/svg">
  <defs
     id="defs1465" />
  <sodipodi:namedview
     id="namedview1463"
     pagecolor="#ffffff"
     bordercolor="#666666"
     borderopacity="1.0"
     inkscape:pageshadow="2"
     inkscape:pageopacity="0.0"
     inkscape:pagecheckerboard="0"
     showgrid="false"
     inkscape:zoom="2.1588542"
     inkscape:cx="-150.54282"
     inkscape:cy="18.296743"
     inkscape:window-width="1916"
     inkscape:window-height="1041"
     inkscape:window-x="0"
     inkscape:window-y="18"
     inkscape:window-maximized="1"
     inkscape:current-layer="svg1461" />
  <path
     d="M13.1864 0.994537L11.2499 5.95921L14.8128 10.8189L19.366 10.4658L19.2207 6.74938L15.5551 6.16494L15.4796 8.1119L16.8442 8.46665L16.8082 7.80571L17.683 7.75827L17.7838 9.61616L14.5771 8.78235L14.7179 5.14438L17.9359 5.65747L17.8207 1.62416L13.1865 0.994631L13.1864 0.994537ZM11.4202 3.11202L7.96537 4.98313L9.18211 11.4234L15.8058 15.2064L23.0455 11.4547L22.5181 4.78883L18.786 4.74252L18.8161 5.79777L20.0679 5.99732L20.2743 11.274L14.3945 11.73L10.2589 6.08915L11.4202 3.11212V3.11202ZM7.05576 7.27012C6.91551 7.26932 6.77405 7.2703 6.63136 7.27293C6.18811 7.28108 5.72081 7.31291 5.25136 7.34765C5.69325 7.97202 6.12764 8.57413 6.66497 9.03224C7.035 9.34771 7.45411 9.60918 7.98098 9.78487L7.50755 7.27926C7.3583 7.2741 7.20773 7.27101 7.05567 7.27016L7.05576 7.27012ZM8.25436 11.2315C7.58508 11.4786 6.98123 11.8526 6.40575 12.3354C5.56786 13.0383 4.7992 13.9864 4.0327 15.0762C6.69989 15.1981 8.7277 14.7757 10.9381 13.4351L8.39644 11.9836L8.2544 11.2315L8.25436 11.2315ZM20.9506 13.5269L18.5769 14.7571C19.8835 15.7335 21.1487 16.0324 22.8032 16.0957C22.3926 15.1013 21.7431 14.2449 20.9506 13.5269L20.9506 13.5269ZM12.0513 13.7563C11.3685 14.2134 10.6994 14.5907 10.0283 14.8974C10.0457 15.4056 10.1602 15.821 10.355 16.1382C8.97262 17.9049 7.46212 19.514 5.81841 20.9589C4.99416 20.902 4.66636 20.0619 4.98192 19.2084C3.91514 20.0556 3.55566 21.185 4.04442 22.4136C3.72409 22.6591 3.39934 22.8989 3.07036 23.1328H5.19586C6.3982 22.1901 7.53562 21.1725 8.61042 20.0815C9.99253 20.5124 11.144 20.0107 11.8741 18.7704C11.1721 19.1479 10.4108 19.0342 10.1192 18.457C10.5737 17.936 11.0138 17.4026 11.439 16.8574C11.7788 16.9141 12.1696 16.8841 12.5977 16.7623C12.1823 15.9197 11.9731 14.9252 12.0514 13.7563H12.0513ZM12.9013 14.5563C12.9577 15.7381 13.3917 16.6192 14.0566 17.3744C14.8964 18.3281 16.1534 19.0592 17.5078 19.7563C17.873 18.1825 17.9557 16.8189 17.4117 15.3608L15.7855 16.2036L12.9013 14.5562L12.9013 14.5563Z"
     fill="#F24E1E"
     id="path1459" />
</svg>
