<?xml version="1.0" encoding="UTF-8" standalone="no"?>
<svg
   width="24"
   height="24"
   viewBox="0 0 24 24"
   fill="none"
   version="1.1"
   id="svg866"
   sodipodi:docname="rye.svg"
   inkscape:version="1.1.2 (0a00cf5339, 2022-02-04)"
   xmlns:inkscape="http://www.inkscape.org/namespaces/inkscape"
   xmlns:sodipodi="http://sodipodi.sourceforge.net/DTD/sodipodi-0.dtd"
   xmlns="http://www.w3.org/2000/svg"
   xmlns:svg="http://www.w3.org/2000/svg">
  <defs
     id="defs870" />
  <sodipodi:namedview
     id="namedview868"
     pagecolor="#ffffff"
     bordercolor="#666666"
     borderopacity="1.0"
     inkscape:pageshadow="2"
     inkscape:pageopacity="0.0"
     inkscape:pagecheckerboard="0"
     showgrid="false"
     inkscape:zoom="24.424647"
     inkscape:cx="-1.5762766"
     inkscape:cy="10.992994"
     inkscape:window-width="1916"
     inkscape:window-height="1041"
     inkscape:window-x="0"
     inkscape:window-y="18"
     inkscape:window-maximized="1"
     inkscape:current-layer="svg866" />
  <path
     d="m 15.247,15.136179 c 0.3465,-0.3651 0.5993,-0.8087 0.7369,-1.2928 0.1376,-0.4842 0.1558,-0.9945 0.0531,-1.4872 -0.0417,-0.1975 -0.1393,-0.3788 -0.2811,-0.5224 -0.1418,-0.1436 -0.3219,-0.2435 -0.5189,-0.2876 0.3509,-0.36446 0.6072,-0.80926 0.7467,-1.29559 0.1394,-0.4863202 0.1577,-0.9993802 0.0533,-1.4944102 -0.0424,-0.20151 -0.1425,-0.38633 -0.2881,-0.53194 -0.1456,-0.1456 -0.3304,-0.24569 -0.5319,-0.28806 -0.689,-0.14241 -1.4058,-0.05458 -2.04,0.25 0.5222,-0.56367 0.8156,-1.30167 0.823,-2.07 -0.0048,-0.51145 -0.136,-1.01377 -0.382,-1.46219 -0.2461,-0.44841 -0.5992,-0.82899 -1.028,-1.10781 -0.1706,-0.11632 -0.372,-0.17936 -0.5785,-0.18114 -0.2065,-0.00178 -0.4089,0.05778 -0.5815,0.17114 -0.4324,0.279 -0.7892,0.6605 -1.0387,1.1106 -0.2495,0.45009 -0.3839,0.95485 -0.3913,1.4694 0.0056,0.77 0.3021,1.50942 0.83,2.07 -0.633,-0.30876 -1.35116,-0.39677 -2.04,-0.25 -0.20221,0.04081 -0.38789,0.14038 -0.53375,0.28625 -0.14587,0.14587 -0.24545,0.33154 -0.28625,0.53375 -0.10572,0.49422 -0.08901,1.00679 0.04868,1.4930702 0.13769,0.48628 0.39219,0.93151 0.74132,1.29693 -0.19576,0.0445 -0.37449,0.1446 -0.51465,0.2883 -0.14017,0.1437 -0.23579,0.3249 -0.27535,0.5217 -0.10443,0.4919 -0.08802,1.0018 0.04783,1.486 0.13585,0.4842 0.38708,0.9282 0.73217,1.294 -0.19361,0.0502 -0.3693,0.1536 -0.50716,0.2986 -0.13785,0.1449 -0.23237,0.3255 -0.27284,0.5214 -0.10127,0.4473 -0.09972,0.9117 0.00452,1.3583 0.10425,0.4466 0.30848,0.8637 0.59731,1.22 0.28883,0.3562 0.65473,0.6422 1.07013,0.8365 0.41544,0.1943 0.86944,0.2918 1.32804,0.2852 0.178,0.0028 0.3557,-0.014 0.53,-0.05 v 3.15 c 0,0.1326 0.0527,0.2598 0.1464,0.3536 0.0938,0.0937 0.221,0.1464 0.3536,0.1464 0.1326,0 0.2598,-0.0527 0.3536,-0.1464 0.0937,-0.0938 0.1464,-0.221 0.1464,-0.3536 v -3.15 c 0.1776,0.0364 0.3587,0.0532 0.54,0.05 0.4018,0.0033 0.8003,-0.0727 1.1727,-0.2238 0.3724,-0.151 0.7113,-0.374 0.9973,-0.6562 0.3591,-0.3659 0.6227,-0.8145 0.7674,-1.3063 0.1448,-0.4918 0.1663,-1.0116 0.0626,-1.5137 -0.0428,-0.1969 -0.1397,-0.378 -0.2798,-0.5229 -0.1401,-0.1448 -0.3178,-0.2477 -0.5132,-0.2971 z m -3.83,3.48 c -0.3406,0.0731 -0.6939,0.0612 -1.0288,-0.0347 -0.3349,-0.096 -0.64099,-0.2729 -0.8912,-0.5153 -0.24821,-0.2541 -0.42581,-0.5685 -0.51526,-0.9123 -0.08944,-0.3437 -0.08763,-0.7049 0.00526,-1.0477 0.1551,-0.0278 0.31244,-0.0412 0.47,-0.04 0.26907,-0.0051 0.53638,0.0445 0.7857,0.1459 0.2492,0.1015 0.4753,0.2526 0.6643,0.4441 0.2508,0.2524 0.4301,0.5668 0.5197,0.9111 0.0896,0.3444 0.0863,0.7063 -0.0097,1.0489 z m 0,-3.6 c -0.3406,0.0738 -0.6941,0.0623 -1.0291,-0.0337 -0.335,-0.096 -0.64108,-0.2733 -0.8909,-0.5163 -0.24813,-0.252 -0.4258,-0.5647 -0.51529,-0.9069 -0.0895,-0.3422 -0.08767,-0.7019 0.00529,-1.0431 0.15403,-0.0359 0.31188,-0.0526 0.47,-0.05 0.26907,-0.0051 0.53638,0.0445 0.7857,0.1459 0.2492,0.1015 0.4753,0.2526 0.6643,0.4441 0.2508,0.2524 0.4301,0.5668 0.5197,0.9111 0.0896,0.3444 0.0863,0.7063 -0.0097,1.0489 z m 0,-3.6 c -0.3406,0.0738 -0.6941,0.0623 -1.0291,-0.0337 -0.335,-0.09597 -0.64108,-0.27334 -0.8909,-0.5163 -0.24813,-0.25203 -0.4258,-0.56475 -0.51529,-0.90692 -0.0895,-0.34217 -0.08767,-0.70183 0.00529,-1.04308 0.15482,-0.03094 0.31214,-0.04768 0.47,-0.05 0.26907,-0.00514 0.53638,0.04452 0.7857,0.14595 0.2492,0.10143 0.4753,0.25251 0.6643,0.44405 0.2508,0.25238 0.4301,0.56678 0.5197,0.91112 0.0896,0.34433 0.0863,0.70627 -0.0097,1.04888 z m 0.56,-3.5500002 c -0.2958,-0.18716 -0.5401,-0.44529 -0.7107,-0.75092 -0.1707,-0.30563 -0.2622,-0.64906 -0.2663,-0.99908 0.0031,-0.35627 0.1011,-0.70528 0.2839,-1.01111 0.1828,-0.30582 0.4438,-0.55742 0.7561,-0.72889 0.2912,0.18823 0.5313,0.44564 0.6988,0.74926 0.1676,0.30362 0.2573,0.644 0.2612,0.99074 -0.0046,0.35527 -0.1013,0.70326 -0.2806,1.00999 -0.1793,0.30673 -0.4351,0.56171 -0.7424,0.74001 z m 2.53,10.2000002 c -0.2558,0.2456 -0.5703,0.4215 -0.9134,0.5108 -0.3432,0.0893 -0.7036,0.089 -1.0466,-8e-4 -0.0309,-0.1481 -0.0476,-0.2987 -0.05,-0.45 v -0.02 c -0.0039,-0.5455 0.2082,-1.0704 0.59,-1.46 0.3735,-0.3667 0.8765,-0.5715 1.4,-0.57 0.1922,-8e-4 0.3837,0.0227 0.57,0.07 0.0714,0.3406 0.0586,0.6935 -0.0373,1.0281 -0.0958,0.3346 -0.2718,0.6407 -0.5127,0.8919 z m 0,-3.6 c -0.2544,0.2477 -0.5689,0.425 -0.9125,0.5144 -0.3436,0.0894 -0.7046,0.0879 -1.0475,-0.0044 -0.0309,-0.1481 -0.0476,-0.2987 -0.05,-0.45 v -0.02 c -0.0029,-0.2688 0.0478,-0.5354 0.1491,-0.7843 0.1013,-0.249 0.2512,-0.4753 0.4409,-0.6657 0.1831,-0.1849 0.4012,-0.3314 0.6416,-0.431 0.2404,-0.0996 0.4982,-0.1502 0.7584,-0.149 0.1919,0.0042 0.3828,0.0276 0.57,0.07 0.0714,0.3406 0.0586,0.6935 -0.0373,1.0281 -0.0958,0.3346 -0.2718,0.6407 -0.5127,0.8919 z m 0,-3.6 c -0.2531,0.24967 -0.5675,0.42825 -0.9116,0.5178 -0.3441,0.0895 -0.7057,0.0868 -1.0484,-0.0078 -0.0309,-0.14807 -0.0476,-0.29875 -0.05,-0.45 v -0.02 c -0.0029,-0.26875 0.0478,-0.53539 0.1491,-0.78435 0.1013,-0.2489502 0.2512,-0.4752302 0.4409,-0.6656502 0.185,-0.18438 0.4051,-0.32982 0.6473,-0.42773 0.2422,-0.0979 0.5015,-0.14627 0.7627,-0.14227 0.1889,-1.6e-4 0.377,0.02335 0.56,0.07 0.0714,0.33908 0.0586,0.69048 -0.0373,1.02345 -0.0959,0.3329802 -0.2719,0.6373802 -0.5127,0.8865502 z"
     fill="#f5c108"
     id="path864" />
  <path
     id="path1376-6-1"
     style="fill:#f5c108;stroke-width:0.399205"
     d="M 15.717425,3.9801742 A 0.38478515,3.8528589 10.907357 0 1 14.62539,7.5343158 0.38478515,3.8528589 10.907357 0 1 15.020344,3.5337262 0.38478515,3.8528589 10.907357 0 1 16.112376,-0.02041479 0.38478515,3.8528589 10.907357 0 1 15.717425,3.9801742 Z" />
  <path
     id="path1376-6-1-0"
     style="fill:#f5c108;stroke-width:0.399205"
     d="M 8.3084212,4.0972721 A 3.8528589,0.38478515 79.092643 0 0 9.4004562,7.6514137 3.8528589,0.38478515 79.092643 0 0 9.0055022,3.6508241 3.8528589,0.38478515 79.092643 0 0 7.9134702,0.09668309 3.8528589,0.38478515 79.092643 0 0 8.3084212,4.0972721 Z" />
  <path
     id="path1376-6-1-0-3"
     style="fill:#f5c108;stroke-width:0.399205"
     d="M 6.6219549,8.0707583 A 3.8528589,0.38478515 79.092643 0 0 7.7139899,11.6249 3.8528589,0.38478515 79.092643 0 0 7.3190359,7.6243103 3.8528589,0.38478515 79.092643 0 0 6.2270039,4.0701692 3.8528589,0.38478515 79.092643 0 0 6.6219549,8.0707583 Z" />
  <path
     id="path1376-6-1-0-6"
     style="fill:#f5c108;stroke-width:0.399205"
     d="m 6.3667655,12.823053 a 3.8528589,0.38478515 79.092643 0 0 1.092035,3.554141 3.8528589,0.38478515 79.092643 0 0 -0.394954,-4.000589 3.8528589,0.38478515 79.092643 0 0 -1.092032,-3.5541411 3.8528589,0.38478515 79.092643 0 0 0.394951,4.0005891 z" />
  <path
     id="path1376-6-1-2"
     style="fill:#f5c108;stroke-width:0.399205"
     d="m 17.391137,8.2949335 a 0.38478515,3.8528589 10.907357 0 1 -1.092035,3.5541415 0.38478515,3.8528589 10.907357 0 1 0.394954,-4.0005895 0.38478515,3.8528589 10.907357 0 1 1.092032,-3.554141 0.38478515,3.8528589 10.907357 0 1 -0.394951,4.000589 z" />
  <path
     id="path1376-6-1-7"
     style="fill:#f5c108;stroke-width:0.399205"
     d="m 17.916504,12.83603 a 0.38478515,3.8528589 10.907357 0 1 -1.092035,3.554141 0.38478515,3.8528589 10.907357 0 1 0.394954,-4.000589 0.38478515,3.8528589 10.907357 0 1 1.092032,-3.5541412 0.38478515,3.8528589 10.907357 0 1 -0.394951,4.0005892 z" />
</svg>
