<svg width="24" height="24" viewBox="0 0 24 24" fill="none" xmlns="http://www.w3.org/2000/svg">
<path d="M15.247 13.836C15.5935 13.4709 15.8463 13.0273 15.9839 12.5432C16.1215 12.059 16.1397 11.5487 16.037 11.056C15.9953 10.8585 15.8977 10.6772 15.7559 10.5336C15.6141 10.39 15.434 10.2901 15.237 10.246C15.5879 9.88154 15.8442 9.43674 15.9837 8.95041C16.1231 8.46409 16.1414 7.95103 16.037 7.456C15.9946 7.25449 15.8945 7.06967 15.7489 6.92406C15.6033 6.77846 15.4185 6.67837 15.217 6.636C14.528 6.49359 13.8112 6.58142 13.177 6.886C13.6992 6.32233 13.9926 5.58433 14 4.816C13.9952 4.30455 13.864 3.80223 13.618 3.35381C13.3719 2.9054 13.0188 2.52482 12.59 2.246C12.4194 2.12968 12.218 2.06664 12.0115 2.06486C11.805 2.06308 11.6026 2.12264 11.43 2.236C10.9976 2.515 10.6408 2.8965 10.3913 3.3466C10.1418 3.79669 10.0074 4.30145 10 4.816C10.0056 5.586 10.3021 6.32542 10.83 6.886C10.197 6.57724 9.47884 6.48923 8.79 6.636C8.58779 6.67681 8.40211 6.77638 8.25625 6.92225C8.11038 7.06812 8.0108 7.25379 7.97 7.456C7.86428 7.95022 7.88099 8.46279 8.01868 8.94907C8.15637 9.43535 8.41087 9.88058 8.76 10.246C8.56424 10.2905 8.38551 10.3906 8.24535 10.5343C8.10518 10.678 8.00956 10.8592 7.97 11.056C7.86557 11.5479 7.88198 12.0578 8.01783 12.542C8.15368 13.0262 8.40491 13.4702 8.75 13.836C8.55639 13.8862 8.3807 13.9896 8.24284 14.1346C8.10499 14.2795 8.01047 14.4601 7.97 14.656C7.86873 15.1033 7.87028 15.5677 7.97452 16.0143C8.07877 16.4609 8.283 16.878 8.57183 17.2343C8.86066 17.5905 9.22656 17.8765 9.64196 18.0708C10.0574 18.2651 10.5114 18.3626 10.97 18.356C11.148 18.3588 11.3257 18.342 11.5 18.306V21.456C11.5 21.5886 11.5527 21.7158 11.6464 21.8096C11.7402 21.9033 11.8674 21.956 12 21.956C12.1326 21.956 12.2598 21.9033 12.3536 21.8096C12.4473 21.7158 12.5 21.5886 12.5 21.456V18.306C12.6776 18.3424 12.8587 18.3592 13.04 18.356C13.4418 18.3593 13.8403 18.2833 14.2127 18.1322C14.5851 17.9812 14.924 17.7582 15.21 17.476C15.5691 17.1101 15.8327 16.6615 15.9774 16.1697C16.1222 15.6779 16.1437 15.1581 16.04 14.656C15.9972 14.4591 15.9003 14.278 15.7602 14.1331C15.6201 13.9883 15.4424 13.8854 15.247 13.836ZM11.417 17.316C11.0764 17.3891 10.7231 17.3772 10.3882 17.2813C10.0533 17.1853 9.74721 17.0084 9.497 16.766C9.24879 16.5119 9.07119 16.1975 8.98174 15.8537C8.8923 15.51 8.89411 15.1488 8.987 14.806C9.1421 14.7782 9.29944 14.7648 9.457 14.766C9.72607 14.7609 9.99338 14.8105 10.2427 14.9119C10.4919 15.0134 10.718 15.1645 10.907 15.356C11.1578 15.6084 11.3371 15.9228 11.4267 16.2671C11.5163 16.6115 11.513 16.9734 11.417 17.316ZM11.417 13.716C11.0764 13.7898 10.7229 13.7783 10.3879 13.6823C10.0529 13.5863 9.74682 13.409 9.497 13.166C9.24887 12.914 9.0712 12.6013 8.98171 12.2591C8.89221 11.9169 8.89404 11.5572 8.987 11.216C9.14103 11.1801 9.29888 11.1634 9.457 11.166C9.72607 11.1609 9.99338 11.2105 10.2427 11.3119C10.4919 11.4134 10.718 11.5645 10.907 11.756C11.1578 12.0084 11.3371 12.3228 11.4267 12.6671C11.5163 13.0115 11.513 13.3734 11.417 13.716ZM11.417 10.116C11.0764 10.1898 10.7229 10.1783 10.3879 10.0823C10.0529 9.98633 9.74682 9.80896 9.497 9.566C9.24887 9.31397 9.0712 9.00125 8.98171 8.65908C8.89221 8.31691 8.89404 7.95725 8.987 7.616C9.14182 7.58506 9.29914 7.56832 9.457 7.566C9.72607 7.56086 9.99338 7.61052 10.2427 7.71195C10.4919 7.81338 10.718 7.96446 10.907 8.156C11.1578 8.40838 11.3371 8.72278 11.4267 9.06712C11.5163 9.41145 11.513 9.77339 11.417 10.116ZM11.977 6.566C11.6812 6.37884 11.4369 6.12071 11.2663 5.81508C11.0956 5.50945 11.0041 5.16602 11 4.816C11.0031 4.45973 11.1011 4.11072 11.2839 3.80489C11.4667 3.49907 11.7277 3.24747 12.04 3.076C12.3312 3.26423 12.5713 3.52164 12.7388 3.82526C12.9064 4.12888 12.9961 4.46926 13 4.816C12.9954 5.17127 12.8987 5.51926 12.7194 5.82599C12.5401 6.13272 12.2843 6.3877 11.977 6.566ZM14.507 16.766C14.2512 17.0116 13.9367 17.1875 13.5936 17.2768C13.2504 17.3661 12.89 17.3658 12.547 17.276C12.5161 17.1279 12.4994 16.9773 12.497 16.826V16.806C12.4931 16.2605 12.7052 15.7356 13.087 15.346C13.4605 14.9793 13.9635 14.7745 14.487 14.776C14.6792 14.7752 14.8707 14.7987 15.057 14.846C15.1284 15.1866 15.1156 15.5395 15.0197 15.8741C14.9239 16.2087 14.7479 16.5148 14.507 16.766ZM14.507 13.166C14.2526 13.4137 13.9381 13.591 13.5945 13.6804C13.2509 13.7698 12.8899 13.7683 12.547 13.676C12.5161 13.5279 12.4994 13.3773 12.497 13.226V13.206C12.4941 12.9372 12.5448 12.6706 12.6461 12.4217C12.7474 12.1727 12.8973 11.9464 13.087 11.756C13.2701 11.5711 13.4882 11.4246 13.7286 11.325C13.969 11.2254 14.2268 11.1748 14.487 11.176C14.6789 11.1802 14.8698 11.2036 15.057 11.246C15.1284 11.5866 15.1156 11.9395 15.0197 12.2741C14.9239 12.6087 14.7479 12.9148 14.507 13.166ZM14.507 9.566C14.2539 9.81567 13.9395 9.99425 13.5954 10.0838C13.2513 10.1733 12.8897 10.1706 12.547 10.076C12.5161 9.92793 12.4994 9.77725 12.497 9.626V9.606C12.4941 9.33725 12.5448 9.07061 12.6461 8.82165C12.7474 8.5727 12.8973 8.34642 13.087 8.156C13.272 7.97162 13.4921 7.82618 13.7343 7.72827C13.9765 7.63037 14.2358 7.582 14.497 7.586C14.6859 7.58584 14.874 7.60935 15.057 7.656C15.1284 7.99508 15.1156 8.34648 15.0197 8.67945C14.9238 9.01243 14.7478 9.31683 14.507 9.566Z" fill="#F5C108"/>
</svg>
