<svg width="24" height="24" viewBox="0 0 24 24" fill="none" xmlns="http://www.w3.org/2000/svg">
<g clip-path="url(#clip0_14_55)">
<path d="M14.25 20.25H20.25C20.9914 20.25 21.6214 20.0828 22.1445 19.7914L14.25 15.0821V20.25ZM23.8725 17.3287C23.958 16.9474 24.0015 16.5435 24.0015 16.1246V14.2496H18.7103L23.871 17.3287M0.131264 6.65963C0.0423904 7.0586 -0.00163266 7.46625 1.40169e-05 7.875V9.75H5.31151L0.131264 6.65963ZM9.75001 3.75H3.75001C3.01389 3.75 2.38801 3.915 1.86714 4.20225L9.75001 8.90475V3.75ZM1.89114 19.8098C2.40714 20.0888 3.02476 20.25 3.75001 20.25H9.75001V15.1215L1.89114 19.8098ZM1.40169e-05 14.25V16.125C1.40169e-05 16.5566 0.045764 16.9725 0.136139 17.3636L5.35576 14.25H1.40169e-05ZM22.1681 4.22063C21.6409 3.92138 21.0023 3.75 20.25 3.75H14.25V8.94412L22.1681 4.22063ZM24 9.75V7.875C24 7.46475 23.9576 7.06913 23.8755 6.69488L18.7545 9.75H24Z" fill="#2E3192"/>
<path d="M18.7545 9.75L23.8755 6.69488C23.6407 5.62088 23.0693 4.73175 22.1681 4.22063L14.25 8.94412V3.75H13.5V10.5H24V9.75H18.7545ZM0 13.5V14.25H5.35575L0.136125 17.3636C0.384 18.4343 0.97275 19.3133 1.89113 19.8098L9.75 15.1215V20.25H10.5V13.5H0ZM24 13.5H13.5V20.25H14.25V15.0821L22.1445 19.7917C23.0524 19.2862 23.631 18.402 23.871 17.3295L18.7103 14.25H24V13.5ZM9.75 3.75V8.90475L1.86713 4.20225C0.955875 4.70475 0.3735 5.5875 0.130875 6.65963L5.3115 9.75H0V10.5H10.5V3.75H9.75Z" fill="#E6E7E8"/>
<path d="M13.5 10.5V3.75H10.5V10.5H0V13.5H10.5V20.25H13.5V13.5H24V10.5H13.5Z" fill="#BE1E2D"/>
<path d="M8.22676 9.75001L0.708012 5.26164C0.546387 5.50164 0.416637 5.76564 0.309387 6.04689L6.51451 9.75001H8.22564M23.6588 18.0338L17.3539 14.25H15.6079L23.2253 18.8321C23.4019 18.5853 23.5475 18.3177 23.6588 18.0353M22.7696 4.64664L14.2384 9.75001L15.9705 9.75114L23.3321 5.34376C23.1679 5.04489 22.9946 4.85214 22.7696 4.64664ZM0.679887 18.7031C0.848574 18.96 1.05158 19.1927 1.28326 19.3946L9.77364 14.25H8.06251L0.679887 18.7031Z" fill="#BE1E2D"/>
</g>
<defs>
<clipPath id="clip0_14_55">
<rect width="24" height="24" fill="white"/>
</clipPath>
</defs>
</svg>
